<svg width="32px" height="56px" viewBox="0 0 200 350" version="1.1" xmlns="http://www.w3.org/2000/svg">
<g id="#333333ff">
<path fill="#333333" opacity="1.00" d=" M 4.76 0.00 L 26.13 0.00 C 28.09 0.83 30.27 1.93 30.88 4.16 C 31.84 6.46 30.51 8.77 29.75 10.91 C 31.64 15.65 33.69 20.31 35.75 24.97 C 41.11 23.92 46.58 24.29 52.00 24.27 C 94.01 24.34 136.03 24.45 178.04 24.46 C 182.41 24.54 187.13 25.45 190.38 28.60 C 193.54 31.85 194.44 36.77 193.71 41.13 C 190.09 64.10 186.56 87.09 182.96 110.06 C 182.22 114.09 181.65 118.55 178.54 121.53 C 175.80 124.44 171.71 125.02 168.00 125.78 C 134.69 131.75 101.37 137.65 68.08 143.65 C 63.33 144.54 57.80 143.28 54.73 139.33 C 52.22 136.29 51.66 132.27 50.58 128.60 C 42.65 100.17 34.65 71.76 26.72 43.32 C 25.33 39.04 26.39 34.38 24.70 30.18 C 22.65 24.29 20.72 18.36 18.73 12.45 C 14.16 12.38 9.56 12.75 5.00 12.27 C 2.44 12.08 1.02 9.71 0.00 7.66 L 0.00 4.91 C 0.86 2.66 2.55 0.94 4.76 0.00 M 38.27 37.27 C 47.05 68.60 55.79 99.93 64.60 131.25 C 99.59 124.99 134.59 118.75 169.58 112.50 C 173.47 87.49 177.37 62.48 181.25 37.47 C 133.59 37.46 85.93 37.29 38.27 37.27 Z" />
<path fill="#333333" opacity="1.00" d=" M 58.45 150.68 C 65.21 148.11 73.40 152.77 74.71 159.85 C 76.34 166.38 71.67 173.42 65.14 174.71 C 58.66 176.30 51.54 171.67 50.29 165.15 C 48.83 159.15 52.60 152.58 58.45 150.68 Z" />
<path fill="#333333" opacity="1.00" d=" M 158.42 150.69 C 165.20 148.09 173.43 152.78 174.72 159.90 C 176.32 166.43 171.63 173.45 165.09 174.72 C 158.61 176.28 151.51 171.64 150.28 165.11 C 148.85 159.13 152.60 152.60 158.42 150.69 Z" />
</g>
<g id="#ffffffff">
<path fill="#ffffff" opacity="1.00" d=" M 0.00 180.40 C 0.58 177.60 2.87 175.07 5.88 175.08 C 12.32 174.92 18.77 174.95 25.20 175.06 C 28.01 175.05 30.60 177.22 31.11 179.98 C 31.67 182.07 30.46 184.00 29.67 185.85 C 31.66 190.58 33.70 195.30 35.73 200.02 C 37.79 199.64 39.85 199.23 41.95 199.26 C 87.63 199.32 133.30 199.44 178.98 199.47 C 183.05 199.71 187.39 200.66 190.40 203.61 C 193.36 206.72 194.43 211.38 193.80 215.56 C 190.15 238.73 186.59 261.91 182.96 285.08 C 182.19 289.10 181.69 293.57 178.53 296.55 C 175.74 299.53 171.54 300.02 167.76 300.82 C 134.35 306.81 100.94 312.74 67.53 318.74 C 61.24 319.96 54.20 316.40 52.38 310.06 C 43.78 279.10 34.99 248.20 26.46 217.22 C 25.11 213.83 26.51 210.12 25.19 206.75 C 23.03 200.33 20.87 193.90 18.74 187.46 C 14.15 187.37 9.55 187.69 4.98 187.31 C 2.39 187.01 0.83 184.68 0.00 182.43 L 0.00 180.40 M 38.27 212.27 C 47.04 243.59 55.81 274.92 64.58 306.25 C 99.58 300.00 134.58 293.75 169.58 287.50 C 173.47 262.49 177.37 237.48 181.26 212.47 C 133.59 212.47 85.93 212.30 38.27 212.27 Z" />
<path fill="#ffffff" opacity="1.00" d=" M 57.83 325.92 C 64.69 322.85 73.42 327.55 74.72 334.91 C 76.49 342.04 70.75 349.44 63.53 350.00 L 61.68 350.00 C 57.01 349.60 52.62 346.57 50.90 342.17 C 48.25 336.02 51.57 328.26 57.83 325.92 Z" />
<path fill="#ffffff" opacity="1.00" d=" M 157.85 325.91 C 164.72 322.85 173.46 327.58 174.74 334.96 C 176.47 342.08 170.74 349.42 163.55 350.00 L 161.66 350.00 C 156.99 349.59 152.60 346.55 150.89 342.14 C 148.26 335.99 151.59 328.24 157.85 325.91 Z" />
</g>
</svg>