<svg width="32px" height="28px" viewBox="0 0 200 175" version="1.1" xmlns="http://www.w3.org/2000/svg">
<g id="#333333ff">
<path fill="#333333" opacity="1.00" d=" M 4.77 0.00 L 26.11 0.00 C 28.43 0.76 30.71 2.39 31.10 4.97 C 31.68 7.06 30.45 8.98 29.68 10.83 C 31.64 15.59 33.70 20.30 35.75 25.02 C 40.42 23.92 45.23 24.28 49.98 24.27 C 92.67 24.33 135.36 24.46 178.06 24.45 C 182.87 24.53 188.24 25.69 191.33 29.70 C 193.66 32.95 194.43 37.21 193.73 41.12 C 190.12 63.80 186.66 86.51 183.10 109.20 C 182.28 113.49 181.90 118.35 178.52 121.53 C 175.58 124.69 171.09 125.11 167.10 125.93 C 136.36 131.45 105.61 136.92 74.87 142.41 C 70.20 143.09 65.35 144.93 60.68 143.24 C 56.26 142.15 53.09 138.18 52.02 133.89 C 43.57 103.18 34.78 72.56 26.36 41.85 C 25.20 38.55 26.42 34.96 25.19 31.69 C 22.99 25.30 20.89 18.87 18.72 12.46 C 14.14 12.35 9.53 12.74 4.96 12.29 C 2.44 12.02 0.94 9.74 0.00 7.63 L 0.00 4.95 C 0.78 2.63 2.53 0.91 4.77 0.00 M 38.27 37.28 C 47.05 68.60 55.80 99.93 64.59 131.25 C 99.59 125.00 134.58 118.75 169.58 112.50 C 173.55 87.53 177.21 62.50 181.35 37.56 C 133.66 37.35 85.96 37.35 38.27 37.28 Z" />
<path fill="#333333" opacity="1.00" d=" M 57.90 150.89 C 64.77 147.88 73.45 152.60 74.73 159.95 C 76.45 167.02 70.84 174.29 63.73 175.00 L 61.33 175.00 C 56.82 174.40 52.59 171.50 50.91 167.20 C 48.23 161.02 51.59 153.20 57.90 150.89 Z" />
<path fill="#333333" opacity="1.00" d=" M 158.43 150.69 C 165.55 147.94 174.14 153.29 174.88 160.85 C 176.02 167.69 170.49 174.29 163.73 175.00 L 161.37 175.00 C 156.83 174.42 152.58 171.50 150.90 167.18 C 148.14 160.81 151.83 152.78 158.43 150.69 Z" />
</g>
</svg>