<svg width="40px" height="80px" viewBox="0 0 160 320" version="1.1" xmlns="http://www.w3.org/2000/svg">
<g id="#1817176a">
<path fill="#181717" opacity="0.42" d=" M 3.35 2.40 C 5.17 1.75 7.18 2.18 9.08 2.07 C 57.38 2.08 105.68 2.08 153.97 2.07 C 155.53 1.96 157.58 2.18 158.02 4.02 C 158.46 6.66 158.14 9.35 158.21 12.01 C 158.20 59.35 158.23 106.69 158.19 154.03 C 158.37 155.92 157.28 158.31 155.02 157.89 C 105.01 157.96 55.00 157.93 4.99 157.90 C 3.28 158.26 1.83 156.70 2.09 155.03 C 2.04 105.36 2.12 55.70 2.06 6.03 C 2.09 4.74 1.86 3.00 3.35 2.40 M 4.00 4.00 C 4.00 54.67 4.00 105.33 4.00 156.00 C 54.74 156.00 105.48 156.00 156.21 156.00 C 156.21 105.33 156.21 54.67 156.21 4.01 C 105.48 3.99 54.74 4.00 4.00 4.00 Z" />
<path fill="#181717" opacity="0.42" d=" M 3.26 162.44 C 4.72 161.78 6.41 162.18 7.97 162.06 C 57.01 162.09 106.05 162.07 155.09 162.08 C 157.19 161.78 158.46 164.09 158.22 165.93 C 158.20 215.29 158.21 264.65 158.22 314.01 C 158.48 315.88 157.31 318.19 155.13 317.90 C 105.07 317.95 55.00 317.93 4.93 317.90 C 3.25 318.27 1.87 316.65 2.09 315.06 C 2.04 265.40 2.11 215.73 2.06 166.07 C 2.15 164.80 1.81 163.08 3.26 162.44 M 4.00 164.00 C 4.00 214.67 4.00 265.33 4.00 316.00 C 54.74 316.00 105.48 316.00 156.21 316.00 C 156.22 265.33 156.21 214.67 156.21 164.01 C 105.48 163.99 54.74 164.00 4.00 164.00 Z" />
</g>
<g id="#ffffffff">
<path fill="#ffffff" opacity="1.00" d=" M 4.00 4.00 C 54.74 4.00 105.48 3.99 156.21 4.01 C 156.21 54.67 156.21 105.33 156.21 156.00 C 105.48 156.00 54.74 156.00 4.00 156.00 C 4.00 105.33 4.00 54.67 4.00 4.00 Z" />
<path fill="#ffffff" opacity="1.00" d=" M 4.00 164.00 C 54.74 164.00 105.48 163.99 156.21 164.01 C 156.21 214.67 156.22 265.33 156.21 316.00 C 105.48 316.00 54.74 316.00 4.00 316.00 C 4.00 265.33 4.00 214.67 4.00 164.00 M 108.60 214.40 C 97.12 225.78 85.87 237.41 74.22 248.58 L 72.79 248.63 C 68.00 244.02 63.35 239.26 58.68 234.54 C 57.59 234.24 56.52 234.27 55.46 234.63 C 52.32 237.60 49.63 241.04 46.31 243.83 L 46.25 245.27 C 54.32 253.99 63.07 262.07 71.31 270.63 C 72.21 271.99 74.09 271.90 75.45 271.39 C 90.42 256.45 105.29 241.40 120.38 226.58 C 120.22 225.46 120.84 224.00 119.92 223.12 C 117.21 220.47 114.52 217.81 111.87 215.10 C 111.09 214.11 109.67 214.58 108.60 214.40 Z" />
</g>
<g id="#00c1eeff">
<path fill="#00c1ee" opacity="1.00" d=" M 108.60 214.40 C 109.67 214.58 111.09 214.11 111.87 215.10 C 114.52 217.81 117.21 220.47 119.92 223.12 C 120.84 224.00 120.22 225.46 120.38 226.58 C 105.29 241.40 90.42 256.45 75.45 271.39 C 74.09 271.90 72.21 271.99 71.31 270.63 C 63.07 262.07 54.32 253.99 46.25 245.27 L 46.31 243.83 C 49.63 241.04 52.32 237.60 55.46 234.63 C 56.52 234.27 57.59 234.24 58.68 234.54 C 63.35 239.26 68.00 244.02 72.79 248.63 L 74.22 248.58 C 85.87 237.41 97.12 225.78 108.60 214.40 Z" />
</g>
</svg>