<svg width="16px" height="12px" viewBox="0 0 100 74" version="1.1" xmlns="http://www.w3.org/2000/svg">
<g id="#ffffffff">
<path fill="#ffffff" opacity="1.00" d=" M 92.35 0.00 L 92.90 0.00 C 94.96 2.20 96.98 4.47 99.38 6.31 L 100.00 6.38 L 100.00 7.69 L 99.47 7.85 C 97.99 8.90 96.62 10.11 95.42 11.49 C 74.43 32.40 53.11 52.99 32.22 74.00 L 32.07 74.00 C 21.32 63.60 10.86 52.87 0.00 42.60 L 0.00 42.38 C 2.50 40.17 4.72 37.67 7.16 35.39 C 15.47 43.56 23.74 51.75 32.05 59.91 C 50.66 41.57 69.27 23.22 87.88 4.88 C 89.44 3.33 91.18 1.90 92.35 0.00 Z" />
</g>
</svg>