<svg width="41px" height="41px" viewBox="0 0 200 200" version="1.1" xmlns="http://www.w3.org/2000/svg">
<g id="#ffffffff">
<path fill="#ffffff" opacity="1.00" d=" M 98.49 0.00 L 101.41 0.00 C 124.54 0.28 147.47 8.84 164.97 23.98 C 186.60 42.30 199.75 70.11 200.00 98.48 L 200.00 103.03 C 199.27 127.51 189.28 151.59 172.19 169.17 C 154.41 188.01 129.03 199.21 103.17 200.00 L 97.06 200.00 C 71.12 199.28 45.66 188.07 27.83 169.19 C 10.76 151.65 0.78 127.62 0.00 103.19 L 0.00 96.98 C 0.74 70.35 12.62 44.29 32.35 26.37 C 50.14 9.79 74.20 0.31 98.49 0.00 M 87.56 8.83 C 60.18 12.38 34.99 29.17 20.96 52.92 C 9.52 71.93 5.40 95.16 9.55 116.95 C 13.28 137.16 24.10 155.95 39.64 169.40 C 55.90 183.65 77.34 191.90 98.99 192.01 C 117.99 192.31 136.99 186.40 152.55 175.50 C 170.16 163.29 183.29 144.74 188.83 124.02 C 194.32 103.89 192.68 81.90 184.17 62.84 C 175.74 43.69 160.56 27.63 141.93 18.11 C 125.34 9.52 106.07 6.29 87.56 8.83 Z" />
<path fill="#ffffff" opacity="1.00" d=" M 95.34 20.47 C 110.79 19.55 126.49 23.24 139.86 31.05 C 156.19 40.47 169.00 55.86 175.19 73.68 C 181.07 90.31 181.16 108.92 175.44 125.61 C 169.67 142.77 157.76 157.75 142.45 167.39 C 116.44 184.26 80.56 183.62 55.18 165.83 C 40.54 155.88 29.36 140.95 24.05 124.06 C 17.71 104.38 19.55 82.24 29.01 63.85 C 41.47 39.07 67.58 21.81 95.34 20.47 M 95.36 28.45 C 72.90 29.72 51.57 42.45 39.57 61.45 C 30.18 75.98 26.44 94.00 29.16 111.08 C 31.64 127.42 40.09 142.72 52.48 153.65 C 64.65 164.52 80.65 171.02 96.98 171.64 C 110.79 172.25 124.75 168.74 136.61 161.63 C 150.71 153.27 161.79 139.94 167.38 124.52 C 173.05 109.07 173.14 91.65 167.62 76.15 C 162.11 60.44 150.89 46.84 136.58 38.35 C 124.26 30.97 109.68 27.50 95.36 28.45 Z" />
<path fill="#ffffff" opacity="1.00" d=" M 89.50 34.70 C 92.32 33.79 96.83 34.12 96.94 37.95 C 97.06 51.98 96.99 66.02 96.98 80.06 C 97.17 82.32 95.05 83.62 93.22 84.32 C 86.41 87.09 81.99 94.71 83.04 101.99 C 83.36 103.88 83.32 106.26 81.36 107.26 C 69.33 114.32 57.22 121.24 45.14 128.20 C 43.27 129.43 40.41 128.73 39.50 126.64 C 28.94 103.52 33.59 74.51 50.78 55.80 C 60.75 44.59 74.69 37.04 89.50 34.70 M 48.08 73.79 C 40.95 87.65 39.96 104.38 45.02 119.09 C 54.98 113.33 64.95 107.60 74.91 101.83 C 74.16 91.74 80.01 81.77 89.06 77.34 C 89.05 65.84 89.07 54.34 89.05 42.84 C 71.60 46.12 55.93 57.81 48.08 73.79 Z" />
<path fill="#ffffff" opacity="1.00" d=" M 105.49 34.55 C 107.33 33.94 109.29 34.58 111.15 34.81 C 127.35 37.50 142.37 46.52 152.36 59.55 C 167.03 78.20 170.33 105.00 160.51 126.61 C 159.48 129.05 156.19 129.38 154.24 127.87 C 142.40 121.00 130.50 114.23 118.70 107.30 C 116.72 106.31 116.65 103.90 116.96 102.00 C 118.01 94.68 113.57 87.01 106.70 84.28 C 104.85 83.60 102.82 82.25 103.02 80.00 C 102.97 66.30 103.00 52.60 103.01 38.89 C 102.83 37.10 103.73 35.18 105.49 34.55 M 110.95 42.84 C 110.94 54.34 110.93 65.85 110.95 77.36 C 120.01 81.76 125.81 91.77 125.10 101.83 C 135.04 107.60 145.02 113.33 154.97 119.09 C 160.15 104.16 159.00 87.14 151.60 73.15 C 143.66 57.50 128.17 46.07 110.95 42.84 Z" />
<path fill="#ffffff" opacity="1.00" d=" M 120.19 52.09 C 123.15 52.09 125.63 54.20 128.13 55.59 C 131.11 56.94 130.86 61.67 127.84 62.79 C 125.44 63.83 123.32 61.83 121.29 60.85 C 119.65 59.82 117.32 59.15 116.85 57.00 C 116.23 54.78 117.91 52.32 120.19 52.09 Z" />
<path fill="#ffffff" opacity="1.00" d=" M 134.59 64.66 C 136.12 63.70 138.33 63.97 139.52 65.37 C 147.88 74.79 152.63 87.37 152.56 99.97 C 152.80 103.01 148.95 105.10 146.50 103.38 C 144.61 102.34 144.59 100.00 144.53 98.12 C 144.23 88.19 140.32 78.51 133.90 70.96 C 132.05 69.22 132.36 65.93 134.59 64.66 Z" />
<path fill="#ffffff" opacity="1.00" d=" M 84.44 112.49 C 86.42 111.27 88.49 112.67 90.05 113.88 C 95.74 118.20 104.24 118.20 109.94 113.88 C 111.50 112.66 113.60 111.26 115.59 112.50 C 127.62 119.34 139.58 126.31 151.56 133.23 C 153.80 134.18 154.80 137.24 153.22 139.20 C 142.07 154.56 124.00 164.57 105.06 165.93 C 82.53 167.83 59.32 157.18 46.40 138.58 C 45.21 136.32 46.81 133.79 48.96 132.90 C 60.80 126.13 72.57 119.21 84.44 112.49 M 55.99 138.07 C 66.93 150.62 83.35 158.26 100.03 158.15 C 116.70 158.24 133.09 150.61 144.01 138.07 C 134.03 132.31 124.08 126.52 114.08 120.82 C 105.77 126.48 94.22 126.44 85.90 120.83 C 75.91 126.54 65.96 132.31 55.99 138.07 Z" />
</g>
</svg>