<svg width="32px" height="26px" viewBox="0 0 200 163" version="1.1" xmlns="http://www.w3.org/2000/svg">
<g id="#333333ff">
<path fill="#333333" opacity="1.00" d=" M 0.00 0.00 L 200.00 0.00 L 200.00 163.00 L 0.00 163.00 L 0.00 0.00 M 12.54 12.54 C 12.52 58.51 12.53 104.49 12.54 150.46 C 70.86 150.48 129.19 150.46 187.51 150.47 C 187.54 104.49 187.54 58.51 187.51 12.53 C 129.19 12.54 70.86 12.52 12.54 12.54 Z" />
<path fill="#333333" opacity="1.00" d=" M 22.22 49.48 C 24.09 45.75 25.94 42.01 27.82 38.28 C 51.89 50.34 75.95 62.43 100.02 74.48 C 124.09 62.43 148.15 50.33 172.22 38.28 C 174.09 42.01 175.94 45.75 177.81 49.48 C 167.35 54.73 156.91 60.02 146.41 65.19 C 157.56 84.27 169.09 103.14 180.36 122.15 C 176.81 124.32 173.23 126.45 169.67 128.60 C 158.13 109.39 146.67 90.12 135.13 70.91 C 123.42 76.75 111.73 82.65 100.02 88.50 C 88.31 82.65 76.62 76.75 64.90 70.90 C 53.37 90.13 41.90 109.38 30.37 128.60 C 26.80 126.45 23.23 124.32 19.68 122.15 C 30.98 103.17 42.37 84.24 53.68 65.26 C 43.19 60.00 32.70 54.75 22.22 49.48 Z" />
</g>
</svg>