<svg width="28px" height="28px" viewBox="0 0 140 140" version="1.1" xmlns="http://www.w3.org/2000/svg">
<g id="#333333ff">
<path fill="#333333" opacity="1.00" d=" M 67.45 0.00 L 71.61 0.00 C 79.26 0.45 86.61 3.63 92.41 8.59 C 113.54 27.01 114.96 62.74 96.60 83.56 C 90.82 90.12 82.81 94.96 74.04 95.95 C 64.24 97.32 54.17 93.66 46.91 87.08 C 26.37 68.40 25.25 33.10 43.52 12.49 C 49.62 5.57 58.22 0.88 67.45 0.00 M 63.50 9.67 C 56.22 11.71 50.18 17.00 46.24 23.35 C 38.75 35.32 37.49 50.70 41.98 63.99 C 44.82 72.22 50.11 79.94 57.84 84.23 C 63.86 87.70 71.39 88.47 77.95 86.13 C 85.08 83.67 90.81 78.12 94.53 71.66 C 101.35 59.77 102.38 44.92 97.94 32.02 C 95.11 24.07 90.04 16.58 82.62 12.28 C 76.94 8.89 69.89 7.86 63.50 9.67 Z" />
<path fill="#333333" opacity="1.00" d=" M 9.39 101.41 C 16.87 92.62 28.37 87.13 39.96 87.59 C 44.36 87.81 45.07 94.70 40.93 95.95 C 36.91 96.52 32.75 96.52 28.95 98.11 C 17.05 102.27 8.47 114.41 8.78 127.04 C 8.74 129.70 11.42 131.55 13.92 131.26 C 51.29 131.28 88.67 131.27 126.04 131.26 C 128.57 131.57 131.29 129.70 131.22 127.00 C 131.66 111.88 119.13 97.82 104.07 96.51 C 101.79 96.07 98.88 96.72 97.25 94.66 C 95.05 92.24 96.74 87.74 100.08 87.60 C 109.51 87.25 118.92 90.78 126.07 96.88 C 133.86 103.34 138.55 112.89 140.00 122.81 L 140.00 128.54 C 139.12 134.35 134.39 139.07 128.60 140.00 L 11.52 140.00 C 5.68 139.15 0.93 134.41 0.00 128.60 L 0.00 123.10 C 1.15 115.21 4.09 107.45 9.39 101.41 Z" />
</g>
</svg>