<svg width="28px" height="56px" viewBox="0 0 100 200" version="1.1" xmlns="http://www.w3.org/2000/svg">
<g id="#333333ff">
<path fill="#333333" opacity="1.00" d=" M 47.32 0.00 L 52.61 0.00 C 59.13 1.07 65.18 4.46 69.41 9.54 C 80.73 22.98 81.03 44.32 70.26 58.18 C 65.65 64.09 58.68 68.44 51.07 68.71 C 42.98 69.19 35.22 64.94 30.21 58.76 C 18.81 44.75 19.09 22.52 31.07 8.95 C 35.24 4.16 41.07 1.01 47.32 0.00 M 46.38 6.65 C 40.16 7.99 35.12 12.68 32.16 18.16 C 26.41 28.72 26.79 42.44 33.33 52.56 C 36.97 58.17 43.16 62.58 50.06 62.49 C 56.93 62.54 63.07 58.12 66.69 52.52 C 74.09 41.03 73.61 24.80 65.07 14.02 C 60.73 8.51 53.42 5.02 46.38 6.65 Z" />
<path fill="#333333" opacity="1.00" d=" M 0.00 87.48 C 1.53 76.23 9.90 66.18 21.02 63.42 C 23.87 62.91 27.05 61.90 29.86 63.00 C 32.45 64.52 31.11 69.00 28.07 68.69 C 16.63 68.61 6.33 78.54 6.26 90.03 C 5.88 92.15 7.84 94.10 9.97 93.72 C 36.68 93.74 63.39 93.75 90.10 93.72 C 91.82 93.98 93.65 92.72 93.73 90.91 C 94.11 80.33 85.60 70.26 75.05 69.05 C 73.04 68.57 70.05 69.28 69.04 66.93 C 67.97 64.96 69.76 62.27 71.99 62.53 C 85.94 62.23 98.27 73.75 100.00 87.41 L 100.00 92.49 C 98.88 96.10 96.01 99.42 92.07 99.86 C 78.82 100.38 65.53 99.51 52.29 100.32 C 50.59 100.07 48.87 100.04 47.15 100.10 C 34.40 99.84 21.63 100.14 8.88 99.95 C 4.58 99.93 1.23 96.45 0.00 92.56 L 0.00 87.48 Z" />
</g>
<g id="#ffffffff">
<path fill="#ffffff" opacity="1.00" d=" M 47.15 100.10 C 48.87 100.04 50.59 100.07 52.29 100.32 C 58.79 100.61 64.67 104.27 68.93 109.00 C 80.90 122.57 81.19 144.79 69.77 158.78 C 65.18 164.41 58.36 168.47 50.99 168.71 C 42.93 169.16 35.19 164.91 30.21 158.75 C 19.11 145.11 19.09 123.74 30.12 110.06 C 34.34 104.80 40.43 101.05 47.15 100.10 M 46.48 106.63 C 40.21 107.94 35.13 112.66 32.15 118.18 C 26.40 128.76 26.79 142.52 33.39 152.64 C 37.01 158.19 43.13 162.54 49.96 162.49 C 56.82 162.58 62.97 158.21 66.62 152.64 C 74.09 141.15 73.64 124.85 65.09 114.04 C 60.77 108.54 53.51 105.05 46.48 106.63 Z" />
<path fill="#ffffff" opacity="1.00" d=" M 0.00 189.15 C 0.53 174.44 14.15 161.66 28.93 162.59 C 31.66 163.17 32.08 167.34 29.51 168.43 C 26.75 169.07 23.81 168.82 21.14 169.91 C 12.34 172.76 5.97 181.68 6.27 190.95 C 6.39 192.76 8.21 193.98 9.94 193.72 C 36.64 193.74 63.35 193.74 90.06 193.72 C 91.79 193.98 93.60 192.76 93.73 190.96 C 94.16 179.98 84.99 169.62 73.99 168.92 C 72.29 168.66 69.90 168.96 69.09 167.02 C 67.89 165.07 69.74 162.25 71.99 162.53 C 86.47 162.21 99.47 174.75 100.00 189.17 L 100.00 191.81 C 99.35 195.98 96.00 199.35 91.83 200.00 L 8.24 200.00 C 4.02 199.40 0.64 195.97 0.00 191.78 L 0.00 189.15 Z" />
</g>
</svg>