<svg width="199px" height="53px" viewBox="0 0 1000 267" version="1.1" xmlns="http://www.w3.org/2000/svg">
<g id="#282828cc">
<path fill="#282828" opacity="0.80" d=" M 0.00 0.00 L 32.46 0.00 C 21.66 0.90 10.83 1.17 0.00 1.01 L 0.00 0.00 Z" />
</g>
<g id="#333333ff">
<path fill="#333333" opacity="1.00" d=" M 32.46 0.00 L 38.95 0.00 C 52.46 0.98 66.24 6.30 74.90 17.08 C 83.96 28.00 86.72 42.97 84.78 56.77 C 81.45 82.49 77.22 108.13 75.58 134.04 C 74.98 148.88 75.89 165.31 85.77 177.28 C 95.88 189.67 112.77 193.41 128.03 193.57 C 141.25 193.33 155.41 191.49 166.24 183.26 C 175.68 176.03 180.07 164.17 181.71 152.75 C 183.07 143.52 182.39 134.16 181.60 124.91 C 179.86 104.71 177.07 84.62 174.30 64.53 C 173.26 56.77 171.60 48.93 172.71 41.07 C 174.37 26.83 183.11 13.66 195.61 6.64 C 202.90 2.38 211.35 0.68 219.68 0.00 L 236.41 0.00 C 243.38 0.19 250.35 0.19 257.31 0.26 C 257.31 7.21 257.31 14.17 257.32 21.12 C 252.88 21.30 248.29 20.69 243.98 21.96 C 242.32 24.21 244.03 27.19 244.20 29.70 C 248.53 29.85 252.86 29.97 257.19 30.09 C 256.97 38.37 257.96 46.70 257.13 54.95 C 254.74 56.53 251.77 56.80 249.32 58.24 C 247.10 59.95 247.89 63.09 248.20 65.47 C 252.65 86.11 255.80 107.05 257.18 128.12 C 258.85 136.19 259.43 144.71 257.67 152.80 C 256.04 168.33 252.54 183.78 245.87 197.96 C 233.79 224.42 210.62 244.90 183.95 255.97 C 170.05 261.66 155.14 264.72 140.17 265.68 C 137.64 265.89 135.17 266.42 132.71 267.00 L 125.42 267.00 C 120.07 265.46 114.45 265.63 108.98 264.88 C 81.98 261.33 55.23 250.63 35.73 231.20 C 23.84 219.43 14.62 205.05 8.46 189.53 C 2.79 175.21 0.44 159.80 0.00 144.46 L 0.00 137.62 C 1.16 113.10 4.77 88.72 9.82 64.71 C 10.08 62.57 10.57 59.85 8.67 58.29 C 5.95 56.82 2.89 56.15 0.00 55.10 L 0.00 30.06 C 4.51 29.61 9.67 31.18 13.74 28.84 C 14.09 26.54 14.00 24.19 14.04 21.87 C 9.39 21.17 4.69 21.20 0.00 21.31 L 0.00 1.01 C 10.83 1.17 21.66 0.90 32.46 0.00 M 36.46 25.65 C 35.26 28.00 33.55 30.19 33.06 32.83 C 35.69 35.59 39.42 37.39 40.97 41.07 C 43.04 44.63 42.02 49.00 43.44 52.69 C 45.61 54.00 48.96 54.25 51.14 52.98 C 51.91 47.98 50.84 42.74 48.95 38.08 C 46.63 32.44 41.76 28.39 36.46 25.65 M 210.77 34.79 C 207.84 39.62 206.29 45.36 206.37 51.00 C 206.96 54.64 211.87 52.54 214.43 53.06 C 215.21 48.36 215.34 43.25 218.19 39.23 C 219.89 36.57 222.75 35.07 224.97 32.93 C 225.33 30.18 222.98 27.78 221.97 25.31 C 217.66 27.68 213.37 30.49 210.77 34.79 M 209.48 73.74 C 207.57 74.25 208.35 76.66 208.36 78.07 C 209.33 85.40 210.40 92.71 211.56 100.00 C 211.81 101.14 212.10 103.16 213.74 102.81 C 216.14 102.31 220.84 102.77 220.08 99.05 C 218.94 91.06 217.89 83.05 216.72 75.06 C 216.16 71.65 211.80 73.47 209.48 73.74 M 41.72 73.66 C 40.00 81.33 39.61 89.22 38.18 96.94 C 38.15 98.75 36.94 101.75 39.33 102.53 C 41.49 102.99 45.31 104.06 46.23 101.25 C 47.28 96.56 47.23 91.70 48.06 86.97 C 48.49 83.30 49.65 79.68 49.49 75.97 C 48.56 72.78 44.22 74.31 41.72 73.66 M 35.55 122.77 C 34.22 129.43 34.94 136.26 34.39 143.00 C 34.48 145.92 33.58 149.12 34.91 151.84 C 37.24 152.79 40.34 152.99 42.39 151.31 C 43.58 148.04 42.23 144.43 42.82 141.03 C 43.59 136.36 43.72 131.63 43.56 126.91 C 43.46 125.76 43.66 124.40 42.75 123.51 C 40.37 123.07 37.95 123.00 35.55 122.77 M 214.52 122.84 C 214.02 129.91 215.18 136.96 214.84 144.03 C 215.07 146.45 214.16 149.86 216.64 151.36 C 218.69 152.22 221.36 152.56 223.31 151.25 C 224.07 141.95 223.50 132.49 222.46 123.23 C 220.35 121.48 217.06 123.06 214.52 122.84 M 212.45 171.23 C 210.61 176.87 208.71 182.54 205.73 187.70 C 204.22 190.47 202.19 192.96 201.12 195.95 C 203.09 197.59 205.18 199.09 207.27 200.59 C 212.17 195.22 215.20 188.46 217.95 181.81 C 218.85 179.15 220.28 176.29 219.47 173.44 C 218.16 170.85 214.82 171.51 212.45 171.23 M 37.83 174.01 C 39.65 183.96 44.74 193.20 50.83 201.21 C 53.02 199.48 55.17 197.70 57.30 195.90 C 54.08 191.16 51.02 186.27 48.91 180.92 C 47.57 177.86 46.84 174.52 45.01 171.69 C 42.54 172.16 39.99 172.67 37.83 174.01 M 66.52 216.08 C 72.45 220.71 79.37 223.87 86.34 226.58 C 88.68 227.34 91.27 228.62 93.75 227.70 C 95.73 226.06 95.40 223.12 96.00 220.85 C 90.75 218.88 85.37 217.20 80.41 214.55 C 77.24 212.98 74.34 210.85 71.01 209.60 C 69.21 211.53 67.86 213.83 66.52 216.08 M 172.08 217.08 C 168.93 218.46 165.48 219.16 162.51 220.96 C 163.41 223.39 163.04 227.39 165.87 228.41 C 175.19 225.75 184.13 221.51 191.97 215.78 C 190.39 213.50 188.80 211.22 187.11 209.03 C 182.21 211.91 177.39 214.99 172.08 217.08 M 135.48 224.70 C 129.33 225.60 123.17 224.61 117.04 224.30 C 116.64 224.49 115.84 224.88 115.45 225.07 C 114.83 227.37 113.22 231.35 116.00 232.75 C 124.86 233.85 133.89 233.75 142.75 232.65 C 145.05 230.91 143.93 226.70 142.55 224.53 C 140.24 223.89 137.82 224.57 135.48 224.70 Z" />
<path fill="#333333" opacity="1.00" d=" M 314.30 56.38 C 343.12 56.37 371.93 56.38 400.75 56.37 C 400.76 84.85 400.75 113.33 400.75 141.81 C 392.77 141.82 384.79 141.81 376.82 141.81 C 376.81 119.48 376.82 97.15 376.81 74.82 C 364.21 74.81 351.60 74.81 339.00 74.82 C 339.00 97.15 339.00 119.48 339.00 141.82 C 330.89 141.81 322.79 141.82 314.69 141.81 C 314.59 113.33 314.48 84.85 314.30 56.38 Z" />
<path fill="#333333" opacity="1.00" d=" M 538.66 65.62 C 543.77 59.97 551.24 55.94 559.01 56.34 C 574.27 56.41 589.54 56.36 604.81 56.37 C 604.82 85.19 604.81 114.00 604.81 142.81 C 573.02 142.82 541.23 142.81 509.44 142.82 C 509.43 136.77 509.43 130.73 509.44 124.69 C 513.80 124.69 518.16 124.68 522.53 124.69 C 524.31 111.83 526.49 99.00 529.60 86.39 C 531.55 79.10 533.45 71.36 538.66 65.62 M 550.04 95.03 C 548.48 104.93 546.96 114.83 545.19 124.68 C 558.42 124.69 571.64 124.68 584.87 124.69 C 584.88 107.65 584.87 90.61 584.87 73.56 C 576.27 73.56 567.67 73.57 559.07 73.56 C 554.24 79.78 551.25 87.28 550.04 95.03 Z" />
<path fill="#333333" opacity="1.00" d=" M 622.94 55.81 C 630.54 55.81 638.15 55.81 645.75 55.81 C 645.75 66.56 645.75 77.31 645.75 88.06 C 651.70 88.04 657.66 88.14 663.61 87.95 C 671.19 77.17 678.92 66.49 686.63 55.79 C 694.12 55.84 701.62 55.80 709.12 55.82 C 700.56 70.26 691.98 84.69 683.42 99.13 C 693.78 113.69 704.16 128.24 714.52 142.81 C 706.11 142.82 697.69 142.81 689.28 142.81 C 680.57 130.56 671.85 118.31 663.13 106.06 C 657.25 106.06 651.37 106.06 645.50 106.07 C 645.50 118.31 645.50 130.56 645.50 142.81 C 637.98 142.81 630.46 142.81 622.94 142.81 C 622.94 113.81 622.94 84.81 622.94 55.81 Z" />
<path fill="#333333" opacity="1.00" d=" M 818.69 56.37 C 839.82 56.37 860.94 56.38 882.07 56.36 C 887.34 56.42 891.81 60.02 895.45 63.50 C 902.27 70.34 902.67 81.16 899.80 89.88 C 899.02 92.56 896.90 94.44 894.59 95.83 C 898.46 98.95 901.73 102.97 903.20 107.78 C 907.37 121.51 899.21 137.64 885.94 142.72 C 863.53 142.95 841.10 142.75 818.69 142.81 C 818.69 114.00 818.68 85.19 818.69 56.37 M 841.50 74.60 C 841.49 79.19 841.50 83.78 841.50 88.37 C 853.02 88.25 864.57 88.61 876.08 88.22 C 880.97 85.37 880.93 76.75 876.08 73.72 C 864.56 73.70 853.03 74.37 841.50 74.60 M 841.50 105.08 C 841.50 111.47 841.49 117.86 841.50 124.25 C 852.35 124.26 863.19 124.22 874.04 124.28 C 875.68 124.21 877.75 124.49 878.80 122.86 C 883.77 117.38 882.84 108.27 877.21 103.59 C 865.31 104.18 853.40 104.57 841.50 105.08 Z" />
<path fill="#333333" opacity="1.00" d=" M 939.03 59.08 C 943.20 56.52 948.15 55.65 952.99 55.73 C 968.66 55.77 984.33 55.74 1000.00 55.75 L 1000.00 142.81 C 992.89 142.81 985.79 142.81 978.69 142.81 C 978.68 135.12 978.69 127.44 978.67 119.75 C 965.43 119.76 952.19 119.75 938.94 119.75 C 936.57 127.44 934.22 135.13 931.85 142.82 C 924.25 142.81 916.65 142.81 909.05 142.81 C 913.72 121.49 918.45 100.12 925.12 79.32 C 927.56 71.42 931.53 63.29 939.03 59.08 M 950.24 79.26 C 945.85 85.77 945.21 93.92 945.40 101.55 C 956.10 101.57 966.80 101.56 977.50 101.56 C 977.49 92.23 977.50 82.90 977.49 73.56 C 971.00 73.60 964.51 73.50 958.03 73.57 C 954.36 73.28 952.05 76.60 950.24 79.26 Z" />
<path fill="#333333" opacity="1.00" d=" M 449.52 57.72 C 462.46 54.72 476.63 56.89 487.83 64.13 C 497.30 70.16 504.60 79.83 506.99 90.88 C 509.49 101.76 507.08 113.59 500.71 122.73 C 492.73 134.40 479.10 141.67 465.08 142.68 C 452.60 143.70 439.68 139.97 429.96 131.99 C 421.22 124.94 415.20 114.38 414.31 103.11 C 413.42 93.51 416.21 83.68 421.85 75.88 C 428.41 66.67 438.55 60.25 449.52 57.72 M 454.40 74.55 C 442.85 77.85 435.25 90.17 436.50 101.96 C 437.25 113.10 445.84 123.49 457.03 125.30 C 466.92 127.21 477.33 121.80 482.14 113.09 C 488.20 102.82 486.36 88.57 477.63 80.37 C 471.65 74.47 462.46 72.08 454.40 74.55 Z" />
<path fill="#333333" opacity="1.00" d=" M 749.48 57.80 C 762.92 54.58 777.73 56.98 789.19 64.83 C 799.01 71.43 806.23 82.10 807.84 93.91 C 809.50 104.93 806.20 116.49 799.22 125.14 C 790.17 136.59 775.53 143.03 761.03 142.83 C 746.60 142.85 732.13 136.29 723.24 124.83 C 715.58 115.21 712.58 102.04 715.59 90.09 C 719.42 73.93 733.53 61.46 749.48 57.80 M 754.38 74.65 C 749.56 76.15 745.28 79.23 742.22 83.23 C 735.26 92.08 734.87 105.38 741.24 114.66 C 746.06 122.03 755.05 126.58 763.88 125.51 C 772.55 124.65 780.23 118.58 783.67 110.66 C 788.27 100.60 785.92 87.78 777.77 80.22 C 771.72 74.34 762.44 72.05 754.38 74.65 Z" />
<path fill="#333333" opacity="1.00" d=" M 315.27 189.27 C 323.68 189.26 332.09 189.28 340.50 189.25 C 340.48 190.92 340.46 192.59 340.45 194.27 C 337.30 194.26 334.15 194.26 331.00 194.26 C 330.99 202.51 331.00 210.75 331.00 219.00 C 328.91 219.00 326.82 219.00 324.74 219.00 C 324.73 210.75 324.74 202.51 324.73 194.27 C 321.58 194.26 318.42 194.26 315.27 194.27 C 315.26 192.60 315.26 190.94 315.27 189.27 Z" />
<path fill="#333333" opacity="1.00" d=" M 352.46 189.65 C 358.36 187.25 366.27 188.38 369.89 194.07 C 373.32 199.53 373.34 206.89 370.69 212.67 C 366.31 221.97 350.76 221.78 346.56 212.44 C 343.00 204.94 344.08 193.42 352.46 189.65 M 355.31 194.38 C 352.40 195.55 351.48 198.98 351.28 201.83 C 351.12 205.22 351.03 209.00 353.18 211.85 C 355.62 214.93 360.70 215.09 363.55 212.50 C 365.69 210.25 366.06 206.96 366.06 204.00 C 366.05 201.02 365.74 197.69 363.52 195.47 C 361.33 193.51 357.95 193.20 355.31 194.38 Z" />
<path fill="#333333" opacity="1.00" d=" M 380.52 189.24 C 382.19 189.25 383.87 189.26 385.55 189.27 C 385.81 190.54 386.08 191.82 386.35 193.10 C 390.62 187.05 400.86 186.78 404.71 193.40 C 408.20 199.75 408.17 208.14 404.68 214.50 C 400.96 221.09 390.98 220.89 386.32 215.42 C 386.97 221.01 386.69 226.65 386.72 232.27 C 384.66 232.26 382.59 232.26 380.54 232.27 C 380.52 217.92 380.56 203.58 380.52 189.24 M 390.32 194.45 C 387.50 195.74 386.89 199.17 386.73 201.94 C 386.63 205.17 386.60 208.68 388.30 211.55 C 390.82 215.58 397.90 215.12 399.60 210.57 C 401.22 206.65 401.16 202.05 399.94 198.04 C 398.82 194.03 393.79 192.68 390.32 194.45 Z" />
<path fill="#333333" opacity="1.00" d=" M 413.50 189.26 C 419.84 189.27 426.17 189.27 432.50 189.25 C 432.48 190.92 432.46 192.60 432.45 194.27 C 428.21 194.26 423.97 194.26 419.73 194.27 C 419.73 202.51 419.73 210.75 419.74 219.00 C 417.67 219.00 415.60 219.00 413.54 219.00 C 413.52 209.09 413.57 199.17 413.50 189.26 Z" />
<path fill="#333333" opacity="1.00" d=" M 444.39 189.68 C 450.32 187.23 458.30 188.37 461.92 194.11 C 465.31 199.56 465.34 206.90 462.70 212.66 C 458.33 221.98 442.74 221.79 438.55 212.42 C 435.02 204.93 436.07 193.49 444.39 189.68 M 447.33 194.37 C 444.40 195.54 443.48 198.98 443.28 201.84 C 443.12 205.22 443.03 208.99 445.18 211.83 C 447.60 214.93 452.69 215.10 455.54 212.51 C 457.71 210.25 458.06 206.93 458.06 203.95 C 458.05 201.00 457.73 197.71 455.54 195.50 C 453.36 193.52 449.97 193.19 447.33 194.37 Z" />
<path fill="#333333" opacity="1.00" d=" M 472.51 189.25 C 478.63 189.43 484.78 188.89 490.88 189.60 C 494.60 189.96 498.50 192.85 498.05 196.97 C 498.45 200.57 495.05 202.63 492.06 203.45 C 495.04 204.04 498.55 205.56 498.93 209.01 C 499.95 213.57 496.26 217.69 491.93 218.43 C 485.53 219.57 478.99 218.77 472.54 219.00 C 472.52 209.08 472.56 199.17 472.51 189.25 M 478.73 194.01 C 478.73 196.42 478.73 198.84 478.73 201.26 C 482.78 201.07 487.20 202.03 490.93 200.05 C 492.32 198.31 492.15 194.94 489.59 194.44 C 486.03 193.63 482.34 194.08 478.73 194.01 M 478.73 206.01 C 478.73 208.76 478.73 211.50 478.73 214.26 C 482.64 214.12 486.75 214.85 490.49 213.46 C 493.19 212.30 493.46 207.76 490.62 206.66 C 486.76 205.56 482.68 206.09 478.73 206.01 Z" />
<path fill="#333333" opacity="1.00" d=" M 505.34 190.90 C 510.82 188.70 517.32 187.24 522.88 189.95 C 525.89 191.43 527.20 194.87 527.22 198.06 C 527.37 205.03 527.20 212.02 527.27 219.00 C 525.76 219.00 524.25 219.00 522.76 219.00 C 522.38 217.61 522.01 216.23 521.64 214.84 C 518.34 218.76 512.99 220.57 508.03 219.03 C 501.31 217.22 500.34 206.45 506.28 203.15 C 510.79 200.58 516.18 201.01 521.18 200.66 C 520.86 198.21 521.19 194.75 518.33 193.71 C 514.61 192.38 510.78 194.11 507.35 195.44 C 506.67 193.92 506.01 192.41 505.34 190.90 M 511.82 205.88 C 508.24 206.98 507.68 213.24 511.39 214.46 C 514.37 215.33 518.06 214.47 519.83 211.78 C 521.22 209.68 520.87 207.02 521.15 204.64 C 518.03 204.93 514.80 204.81 511.82 205.88 Z" />
<path fill="#333333" opacity="1.00" d=" M 541.04 189.80 C 546.85 188.69 552.84 189.51 558.73 189.27 C 558.73 199.18 558.73 209.09 558.74 219.00 C 556.66 219.00 554.59 219.00 552.54 219.00 C 552.53 215.16 552.53 211.31 552.53 207.47 C 550.54 207.47 548.57 207.46 546.60 207.46 C 544.18 211.17 542.12 215.12 539.55 218.72 C 537.22 219.18 534.84 218.99 532.49 219.04 C 535.15 215.04 537.82 211.04 540.50 207.05 C 537.70 205.58 534.81 203.49 534.43 200.09 C 533.26 195.52 536.43 190.66 541.04 189.80 M 542.90 202.11 C 545.99 203.14 549.33 202.64 552.54 202.75 C 552.53 199.83 552.53 196.92 552.54 194.01 C 549.36 194.05 546.11 193.68 542.99 194.39 C 539.58 195.42 539.50 200.96 542.90 202.11 Z" />
<path fill="#333333" opacity="1.00" d=" M 586.61 190.61 C 591.62 187.46 597.93 188.33 603.30 190.01 C 602.67 191.73 602.03 193.44 601.39 195.15 C 597.97 194.27 594.09 192.71 590.78 194.75 C 587.39 196.95 587.10 201.44 587.23 205.09 C 587.22 208.29 588.22 212.02 591.33 213.56 C 594.96 215.33 598.98 213.59 602.51 212.40 C 602.48 214.29 602.47 216.18 602.46 218.08 C 597.57 219.64 591.95 220.37 587.22 217.93 C 582.57 215.50 580.74 209.94 580.70 205.00 C 580.53 199.73 581.86 193.64 586.61 190.61 Z" />
<path fill="#333333" opacity="1.00" d=" M 609.44 195.62 C 612.99 187.12 626.42 185.89 631.56 193.44 C 634.11 196.85 633.75 201.27 633.74 205.28 C 627.15 205.28 620.56 205.20 613.97 205.34 C 614.58 208.18 615.04 211.56 617.77 213.21 C 622.38 215.93 627.90 214.04 632.54 212.39 C 632.47 214.18 632.43 215.98 632.38 217.78 C 625.84 219.93 617.66 220.83 612.08 215.96 C 606.85 210.74 606.64 202.10 609.44 195.62 M 617.35 194.36 C 615.21 195.76 614.82 198.46 614.01 200.69 C 618.68 200.76 623.35 200.77 628.02 200.67 C 627.54 198.99 627.25 197.22 626.41 195.67 C 624.45 192.80 620.09 192.54 617.35 194.36 Z" />
<path fill="#333333" opacity="1.00" d=" M 637.27 189.27 C 645.68 189.26 654.09 189.28 662.50 189.26 C 662.47 190.93 662.46 192.60 662.45 194.27 C 659.29 194.26 656.15 194.26 653.00 194.26 C 652.99 202.51 653.00 210.75 653.00 219.00 C 650.91 219.00 648.82 219.00 646.74 219.00 C 646.73 210.75 646.73 202.51 646.73 194.27 C 643.57 194.26 640.42 194.26 637.27 194.27 C 637.26 192.60 637.26 190.93 637.27 189.27 Z" />
<path fill="#333333" opacity="1.00" d=" M 668.50 189.25 C 670.57 189.26 672.65 189.27 674.73 189.27 C 674.73 193.27 674.73 197.27 674.74 201.27 C 679.91 201.46 685.46 200.49 690.30 202.82 C 695.59 205.34 695.63 213.80 690.86 216.88 C 684.09 220.65 675.91 218.38 668.54 219.00 C 668.51 209.08 668.57 199.17 668.50 189.25 M 674.73 206.00 C 674.73 208.75 674.73 211.51 674.73 214.26 C 678.36 214.14 682.17 214.79 685.67 213.56 C 688.47 212.64 688.99 208.09 686.25 206.79 C 682.57 205.45 678.55 206.14 674.73 206.00 Z" />
</g>
</svg>