<svg width="125px" height="66px" viewBox="0 0 500 265" version="1.1" xmlns="http://www.w3.org/2000/svg">
<g id="#333333ff">
<path fill="#333333" opacity="1.00" d=" M 0.00 0.00 L 20.74 0.00 C 28.68 1.01 36.71 5.17 40.17 12.72 C 44.76 21.64 41.70 31.78 40.64 41.15 C 39.31 52.74 36.96 64.40 38.10 76.11 C 38.71 83.85 43.48 91.35 50.95 94.06 C 60.23 97.44 71.05 97.29 80.08 93.17 C 88.62 89.05 91.41 78.75 91.20 69.97 C 90.73 55.23 88.10 40.68 86.33 26.07 C 85.27 17.95 88.95 9.47 95.61 4.71 C 99.37 1.88 104.03 0.65 108.62 0.00 L 128.65 0.00 C 128.68 3.50 128.69 7.00 128.70 10.49 C 126.35 10.57 123.99 10.66 121.64 10.78 C 121.76 12.10 121.90 13.42 122.03 14.74 C 124.23 14.83 126.42 14.91 128.62 14.99 C 128.68 19.08 128.74 23.16 128.70 27.25 C 127.23 27.94 125.70 28.53 124.33 29.43 C 123.58 31.88 124.60 34.48 124.95 36.93 C 127.21 47.16 128.02 57.62 129.21 68.00 C 129.73 73.68 128.49 79.31 127.47 84.86 C 124.73 98.83 116.80 111.79 105.15 120.08 C 93.13 129.16 77.82 132.78 62.95 132.68 C 47.28 132.11 31.16 127.39 19.41 116.63 C 7.57 105.90 0.73 90.28 0.00 74.39 L 0.00 67.43 C 0.49 58.91 1.58 50.42 3.01 42.01 C 3.63 37.96 4.88 33.99 5.00 29.88 C 3.47 28.69 1.66 27.96 0.00 27.00 L 0.00 14.96 C 2.27 14.92 4.53 14.88 6.79 14.82 C 6.88 13.49 6.96 12.16 7.03 10.83 C 4.69 10.71 2.34 10.64 0.00 10.57 L 0.00 0.00 M 18.40 12.67 C 17.74 13.80 17.09 14.93 16.43 16.06 C 17.83 17.47 19.50 18.70 20.48 20.46 C 21.15 22.36 21.29 24.39 21.85 26.32 C 23.13 26.61 24.44 26.71 25.74 26.87 C 25.59 24.10 25.58 21.21 24.31 18.67 C 23.13 16.01 20.64 14.36 18.40 12.67 M 103.16 26.00 C 104.47 26.25 105.79 26.45 107.11 26.60 C 107.32 22.34 109.11 18.43 112.71 16.01 C 112.10 14.84 111.50 13.67 110.89 12.50 C 105.97 15.13 102.80 20.37 103.16 26.00 M 18.90 51.08 C 20.28 51.13 21.65 51.19 23.02 51.24 C 23.52 46.60 24.48 42.01 24.69 37.35 C 23.41 37.02 22.11 36.75 20.80 36.55 C 20.08 41.38 19.36 46.21 18.90 51.08 M 104.02 36.84 C 104.50 41.67 105.25 46.46 106.05 51.25 C 107.40 51.05 108.76 50.85 110.11 50.64 C 109.58 45.86 108.90 41.11 108.17 36.36 C 106.79 36.51 105.41 36.67 104.02 36.84 M 17.67 61.20 C 17.28 66.09 17.10 71.00 17.23 75.91 C 18.48 75.88 19.73 75.80 20.98 75.68 C 21.79 71.02 21.66 66.22 21.69 61.50 C 20.35 61.39 19.01 61.29 17.67 61.20 M 107.16 61.33 C 107.43 65.96 107.14 70.64 107.80 75.23 C 108.99 75.59 110.27 75.85 111.52 75.59 C 112.24 70.73 111.57 65.79 111.21 60.91 C 109.86 61.04 108.50 61.18 107.16 61.33 M 106.53 84.91 C 104.97 89.31 103.06 93.58 100.49 97.50 C 101.61 98.33 102.73 99.15 103.86 99.98 C 106.37 96.00 109.12 91.89 109.83 87.14 C 109.95 85.47 107.57 85.64 106.53 84.91 M 18.75 86.57 C 20.02 91.52 22.40 96.07 25.28 100.27 C 26.38 99.40 27.47 98.52 28.57 97.64 C 26.05 93.83 24.16 89.66 22.48 85.43 C 21.55 85.72 19.68 86.29 18.75 86.57 M 33.16 107.56 C 37.10 110.23 41.36 112.75 46.11 113.55 C 47.78 113.57 47.47 111.14 48.22 110.11 C 43.82 108.65 39.57 106.75 35.61 104.35 C 34.78 105.41 33.97 106.48 33.16 107.56 M 81.14 110.02 C 81.62 111.35 82.11 112.68 82.60 114.01 C 87.30 112.40 91.87 110.36 96.01 107.58 C 95.18 106.44 94.34 105.30 93.49 104.17 C 89.63 106.63 85.46 108.52 81.14 110.02 M 57.06 115.75 C 62.03 116.50 67.07 116.41 72.05 115.82 C 71.86 114.44 71.66 113.06 71.45 111.68 C 66.93 112.21 62.40 111.94 57.88 111.88 C 57.50 113.15 57.30 114.45 57.06 115.75 Z" />
<path fill="#333333" opacity="1.00" d=" M 157.13 28.06 C 171.55 28.06 185.96 28.06 200.37 28.06 C 200.38 42.26 200.36 56.47 200.38 70.67 C 196.38 70.69 192.38 70.69 188.37 70.69 C 188.38 59.57 188.36 48.46 188.39 37.34 C 182.09 37.29 175.79 37.32 169.50 37.32 C 169.51 48.43 169.48 59.55 169.51 70.67 C 165.45 70.70 161.38 70.69 157.31 70.69 C 157.30 56.48 157.21 42.27 157.13 28.06 Z" />
<path fill="#333333" opacity="1.00" d=" M 224.50 28.80 C 232.47 26.86 241.44 28.92 247.40 34.66 C 252.11 39.04 254.69 45.66 253.83 52.08 C 252.87 60.56 246.12 67.62 238.09 70.03 C 225.85 74.21 210.36 67.09 207.55 54.00 C 204.72 42.66 213.45 31.10 224.50 28.80 M 226.31 37.45 C 220.60 39.60 217.22 46.17 218.45 52.09 C 219.44 58.66 226.27 63.89 232.90 62.32 C 240.43 60.92 244.83 51.96 242.02 44.99 C 239.96 38.76 232.50 34.88 226.31 37.45 Z" />
<path fill="#333333" opacity="1.00" d=" M 266.53 37.38 C 268.35 32.22 273.37 28.10 278.95 28.08 C 286.78 27.99 294.61 28.10 302.44 28.06 C 302.44 42.43 302.44 56.81 302.44 71.18 C 286.52 71.19 270.60 71.19 254.69 71.19 C 254.68 68.16 254.68 65.14 254.69 62.12 C 256.86 62.12 259.04 62.12 261.23 62.12 C 262.55 53.79 263.68 45.35 266.53 37.38 M 279.22 36.75 C 274.20 44.26 274.43 53.59 272.63 62.12 C 279.23 62.12 285.83 62.13 292.43 62.12 C 292.44 53.64 292.44 45.17 292.43 36.69 C 288.03 36.68 283.62 36.67 279.22 36.75 Z" />
<path fill="#333333" opacity="1.00" d=" M 311.47 71.20 C 311.41 56.72 311.43 42.23 311.45 27.74 C 315.26 27.75 319.06 27.75 322.87 27.75 C 322.88 33.12 322.88 38.49 322.86 43.86 C 325.81 43.87 328.76 43.87 331.71 43.87 C 335.54 38.49 339.44 33.16 343.26 27.77 C 347.04 27.74 350.82 27.75 354.60 27.76 C 350.33 34.96 346.06 42.16 341.74 49.33 C 346.88 56.65 352.14 63.88 357.31 71.18 C 353.12 71.19 348.93 71.17 344.74 71.22 C 340.31 65.18 335.97 59.07 331.68 52.93 C 328.70 52.88 325.73 52.87 322.75 52.86 C 322.75 58.97 322.75 65.08 322.76 71.18 C 318.99 71.19 315.23 71.19 311.47 71.20 Z" />
<path fill="#333333" opacity="1.00" d=" M 375.48 28.61 C 382.51 27.17 390.18 28.73 395.85 33.19 C 401.27 37.31 404.62 44.13 404.08 50.97 C 403.65 58.89 398.08 65.93 390.91 69.02 C 380.90 73.57 367.83 70.74 361.26 61.73 C 357.02 56.16 356.00 48.31 358.78 41.87 C 361.63 34.98 368.26 30.07 375.48 28.61 M 376.33 37.51 C 370.04 39.92 366.79 47.67 369.07 53.94 C 370.91 59.98 377.82 64.09 383.97 62.09 C 391.33 60.09 395.08 50.90 391.82 44.14 C 389.43 38.33 382.22 34.98 376.33 37.51 Z" />
<path fill="#333333" opacity="1.00" d=" M 409.31 28.06 C 420.21 28.16 431.13 27.85 442.02 28.19 C 450.50 29.90 453.74 41.80 447.72 47.82 C 450.32 50.58 452.62 54.05 452.13 58.05 C 451.88 64.71 446.35 72.22 439.06 71.22 C 429.14 71.13 419.21 71.25 409.29 71.14 C 409.33 56.78 409.30 42.42 409.31 28.06 M 420.76 37.18 C 420.75 39.45 420.75 41.72 420.75 44.00 C 426.56 43.88 432.38 44.24 438.18 43.86 C 440.70 42.14 439.77 38.80 438.46 36.60 C 432.56 36.87 426.66 37.00 420.76 37.18 M 420.75 52.36 C 420.75 55.54 420.75 58.71 420.77 61.89 C 426.87 61.87 432.98 61.86 439.08 61.89 C 441.28 58.94 441.86 54.56 438.92 51.88 C 432.86 51.53 426.80 52.27 420.75 52.36 Z" />
<path fill="#333333" opacity="1.00" d=" M 463.42 37.14 C 465.11 32.20 469.49 27.92 474.95 27.85 C 483.29 27.55 491.65 27.86 500.00 27.75 L 500.00 71.19 C 496.44 71.19 492.87 71.19 489.32 71.19 C 489.31 67.33 489.31 63.48 489.31 59.63 C 482.71 59.63 476.11 59.63 469.51 59.62 C 468.31 63.47 467.12 67.33 465.93 71.19 C 462.11 71.19 458.30 71.19 454.49 71.18 C 457.11 59.75 459.43 48.19 463.42 37.14 M 477.22 37.17 C 473.23 40.34 472.75 45.82 472.58 50.54 C 477.97 50.58 483.35 50.55 488.73 50.57 C 488.76 45.95 488.75 41.32 488.75 36.70 C 484.93 36.93 480.91 36.06 477.22 37.17 Z" />
<path fill="#333333" opacity="1.00" d=" M 157.46 94.27 C 161.55 94.34 165.65 94.04 169.73 94.41 C 170.00 94.89 170.53 95.85 170.80 96.34 C 169.02 96.41 167.25 96.46 165.47 96.50 C 165.46 100.67 165.46 104.84 165.46 109.01 C 164.66 109.00 163.06 108.99 162.26 108.99 C 162.27 104.81 162.27 100.64 162.26 96.46 C 160.68 96.47 159.11 96.47 157.53 96.48 C 157.51 95.93 157.48 94.83 157.46 94.27 Z" />
<path fill="#333333" opacity="1.00" d=" M 176.36 94.41 C 179.19 93.47 182.88 93.72 184.73 96.37 C 188.39 100.93 185.72 109.99 179.03 109.30 C 171.46 109.40 169.87 97.15 176.36 94.41 M 177.26 96.99 C 174.93 99.00 175.03 102.98 176.55 105.48 C 178.53 108.03 183.11 106.45 182.94 103.13 C 184.17 99.66 181.18 94.50 177.26 96.99 Z" />
<path fill="#333333" opacity="1.00" d=" M 190.35 93.81 C 191.47 94.30 192.56 94.85 193.60 95.50 C 196.43 93.09 201.41 93.42 202.85 97.23 C 203.98 100.87 204.14 106.00 200.69 108.47 C 198.23 110.18 195.32 108.96 193.16 107.42 C 193.26 110.18 193.28 112.95 193.27 115.72 C 192.57 115.62 191.17 115.42 190.46 115.31 C 190.02 108.16 190.32 100.97 190.35 93.81 M 194.42 97.43 C 192.18 100.37 192.94 107.89 197.99 106.58 C 200.79 105.41 200.46 101.58 200.09 99.09 C 199.82 96.49 196.01 95.42 194.42 97.43 Z" />
<path fill="#333333" opacity="1.00" d=" M 222.29 94.44 C 224.87 93.60 228.23 93.58 230.18 95.75 C 234.62 100.07 232.04 110.02 225.03 109.30 C 217.48 109.39 215.88 97.24 222.29 94.44 M 223.21 97.04 C 220.91 99.09 221.03 103.07 222.60 105.56 C 224.65 108.02 229.12 106.39 228.95 103.09 C 230.19 99.59 227.09 94.44 223.21 97.04 Z" />
<path fill="#333333" opacity="1.00" d=" M 236.27 94.28 C 239.89 94.43 243.70 93.73 247.21 94.84 C 250.13 96.30 249.17 100.09 246.53 101.26 C 249.28 102.07 250.61 105.26 248.47 107.47 C 244.95 109.96 240.29 108.73 236.26 109.00 C 236.27 104.09 236.27 99.18 236.27 94.28 M 239.29 96.34 C 239.27 97.58 239.26 98.82 239.25 100.07 C 241.48 99.78 246.99 101.09 245.69 97.18 C 243.70 96.23 241.42 96.52 239.29 96.34 M 239.27 102.38 C 239.27 103.87 239.27 105.36 239.29 106.85 C 241.63 106.42 246.39 107.69 246.30 104.04 C 245.11 101.46 241.52 102.83 239.27 102.38 Z" />
<path fill="#333333" opacity="1.00" d=" M 252.61 94.88 C 256.03 94.18 261.19 92.55 263.24 96.46 C 264.20 100.74 263.64 105.19 263.62 109.55 C 262.53 108.88 261.45 108.19 260.40 107.47 C 258.78 108.46 257.03 109.73 255.00 109.24 C 250.98 109.24 249.82 103.05 253.06 101.16 C 255.46 99.83 258.35 100.13 260.98 99.70 C 260.38 98.60 260.32 96.72 258.86 96.39 C 257.09 96.13 255.36 96.83 253.64 97.14 C 253.38 96.57 252.87 95.44 252.61 94.88 M 254.81 103.05 C 253.86 104.81 254.65 107.46 257.05 106.76 C 259.86 107.13 260.47 103.99 260.96 101.95 C 258.89 102.12 256.65 101.92 254.81 103.05 Z" />
<path fill="#333333" opacity="1.00" d=" M 269.02 95.00 C 272.30 93.65 276.03 94.46 279.50 94.25 C 279.45 99.16 279.46 104.06 279.48 108.96 C 278.41 108.98 277.33 109.00 276.27 109.01 C 276.26 107.09 276.26 105.16 276.27 103.24 C 275.49 103.26 273.95 103.31 273.18 103.33 C 272.06 105.21 270.94 107.09 269.81 108.97 C 268.91 108.98 267.11 109.00 266.22 109.01 C 267.48 107.13 268.74 105.24 270.01 103.36 C 267.34 101.51 265.79 97.11 269.02 95.00 M 269.94 97.12 C 270.20 98.20 270.52 99.26 270.89 100.31 C 272.56 101.06 274.46 100.95 276.24 101.22 C 276.25 99.58 276.26 97.94 276.27 96.30 C 274.15 96.50 272.03 96.73 269.94 97.12 Z" />
<path fill="#333333" opacity="1.00" d=" M 291.60 96.59 C 293.81 93.16 298.29 93.95 301.71 94.45 C 301.48 95.08 301.03 96.34 300.80 96.97 C 298.79 96.87 296.24 95.73 294.70 97.62 C 292.88 100.08 293.11 103.84 295.08 106.17 C 297.21 106.99 299.49 106.24 301.68 106.13 C 301.49 109.93 296.80 109.67 294.20 108.79 C 289.72 106.73 289.46 100.44 291.60 96.59 Z" />
<path fill="#333333" opacity="1.00" d=" M 304.91 96.96 C 306.89 93.32 312.42 92.94 315.28 95.70 C 316.89 97.48 316.71 100.06 317.23 102.25 C 313.70 102.26 310.17 102.25 306.64 102.31 C 307.51 103.87 307.91 106.27 309.99 106.66 C 312.24 106.92 314.48 106.26 316.70 105.98 C 316.39 109.81 311.69 109.53 308.94 109.01 C 303.73 107.86 302.68 101.07 304.91 96.96 M 306.65 99.85 C 309.20 99.97 311.76 99.98 314.32 99.87 C 313.37 98.54 312.94 96.23 310.91 96.27 C 308.58 95.87 307.71 98.31 306.65 99.85 Z" />
<path fill="#333333" opacity="1.00" d=" M 318.46 94.27 C 322.72 94.27 326.99 94.27 331.25 94.26 C 331.26 94.81 331.28 95.90 331.29 96.45 C 329.67 96.46 328.07 96.47 326.47 96.48 C 326.46 100.66 326.46 104.83 326.46 109.01 C 325.66 109.00 324.06 108.99 323.26 108.99 C 323.27 104.81 323.27 100.64 323.26 96.46 C 321.68 96.47 320.10 96.47 318.53 96.48 C 318.51 95.93 318.48 94.82 318.46 94.27 Z" />
<path fill="#333333" opacity="1.00" d=" M 334.27 94.26 C 335.27 94.26 336.27 94.27 337.28 94.28 C 337.26 96.14 337.25 98.01 337.24 99.88 C 339.85 100.09 342.61 99.83 345.10 100.80 C 348.27 102.18 347.78 107.40 344.58 108.44 C 341.23 109.38 337.69 108.92 334.26 109.00 C 334.27 104.09 334.26 99.17 334.27 94.26 M 337.27 102.36 C 337.27 103.86 337.27 105.36 337.29 106.87 C 339.47 106.67 341.82 106.92 343.84 105.89 C 343.85 105.20 343.86 103.82 343.86 103.13 C 341.79 102.23 339.47 102.50 337.27 102.36 Z" />
<path fill="#333333" opacity="1.00" d=" M 206.73 94.27 C 209.91 94.27 213.09 94.27 216.28 94.27 L 216.27 96.45 C 214.08 96.46 211.90 96.47 209.73 96.50 C 209.73 100.66 209.73 104.82 209.74 108.99 C 208.99 108.99 207.49 109.00 206.74 109.01 C 206.73 104.09 206.73 99.18 206.73 94.27 Z" />
</g>
<g id="#ffffffff">
<path fill="#ffffff" opacity="1.00" d=" M 0.00 133.17 C 6.02 133.13 12.04 132.97 18.06 133.01 C 25.05 133.08 32.31 135.59 37.00 140.95 C 41.76 146.33 43.38 153.91 42.44 160.92 C 40.81 173.63 38.72 186.30 37.85 199.10 C 37.53 205.99 37.73 213.42 41.54 219.43 C 45.44 225.76 52.98 228.58 60.09 229.20 C 67.51 229.74 75.51 229.12 81.97 225.08 C 89.17 220.38 91.30 211.10 91.21 203.02 C 90.81 191.22 89.06 179.52 87.49 167.83 C 86.74 161.92 85.23 155.80 87.05 149.94 C 89.35 141.61 96.70 135.08 105.18 133.61 C 112.95 132.38 120.86 133.27 128.69 133.12 C 128.69 136.58 128.68 140.04 128.71 143.50 C 126.34 143.55 123.97 143.64 121.60 143.81 C 121.74 145.12 121.88 146.42 122.03 147.73 C 124.22 147.83 126.42 147.91 128.61 147.99 C 128.58 152.07 128.97 156.16 128.59 160.23 C 127.09 161.21 125.09 161.52 123.93 162.95 C 124.01 166.34 125.01 169.60 125.57 172.93 C 127.49 182.86 128.30 192.96 129.36 203.00 C 128.80 216.45 125.43 230.31 117.20 241.22 C 107.12 254.72 91.08 263.10 74.46 265.00 L 54.59 265.00 C 40.60 263.14 26.70 257.50 16.84 247.14 C 6.49 236.49 0.63 221.94 0.00 207.15 L 0.00 200.59 C 0.51 191.51 1.70 182.48 3.26 173.52 C 3.82 169.99 4.95 166.53 5.02 162.93 C 3.79 161.39 1.64 161.14 0.00 160.21 L 0.00 147.95 C 2.26 147.93 4.51 147.91 6.76 147.81 C 6.88 146.48 7.00 145.16 7.10 143.84 C 4.73 143.68 2.37 143.63 0.00 143.58 L 0.00 133.17 M 18.38 145.71 C 17.72 146.85 17.05 147.99 16.39 149.13 C 17.96 150.66 20.02 151.93 20.79 154.10 C 21.28 155.82 21.31 157.64 21.72 159.39 C 23.01 159.66 24.34 159.69 25.65 159.77 C 26.32 154.06 23.50 148.40 18.38 145.71 M 103.10 159.28 C 104.12 159.32 106.17 159.40 107.20 159.44 C 107.26 155.21 109.12 151.34 112.75 149.07 C 112.15 147.90 111.54 146.72 110.92 145.55 C 105.73 148.06 102.88 153.61 103.10 159.28 M 18.87 184.07 C 20.26 184.15 21.64 184.20 23.03 184.24 C 23.55 179.60 24.36 175.00 24.77 170.35 C 23.46 170.03 22.15 169.77 20.82 169.59 C 20.08 174.40 19.35 179.22 18.87 184.07 M 104.05 169.77 C 104.45 174.63 105.26 179.45 106.06 184.26 C 107.42 184.05 108.78 183.83 110.14 183.58 C 109.51 178.89 109.02 174.16 108.12 169.51 C 106.76 169.52 105.40 169.61 104.05 169.77 M 17.28 208.84 C 18.58 208.58 21.26 209.66 21.33 207.58 C 21.22 203.27 22.11 198.96 21.63 194.65 C 20.32 194.43 19.00 194.26 17.68 194.14 C 17.28 199.02 17.06 203.94 17.28 208.84 M 107.14 194.35 C 107.33 198.54 107.39 202.73 107.53 206.92 C 107.46 208.87 110.79 209.46 111.69 208.05 C 112.02 203.33 111.65 198.59 111.20 193.90 C 109.84 194.03 108.49 194.18 107.14 194.35 M 106.50 218.03 C 104.93 222.43 102.97 226.68 100.48 230.64 C 101.60 231.40 102.72 232.16 103.85 232.90 C 106.50 228.99 109.04 224.79 109.90 220.08 C 109.77 218.37 107.68 218.52 106.50 218.03 M 18.74 219.60 C 20.04 224.53 22.36 229.14 25.36 233.25 C 26.44 232.38 27.52 231.50 28.59 230.62 C 25.97 226.88 24.19 222.68 22.54 218.45 C 21.59 218.74 19.69 219.32 18.74 219.60 M 33.27 240.81 C 37.54 243.25 41.98 246.37 47.04 246.49 C 47.46 245.36 47.83 244.22 48.13 243.06 C 43.69 241.66 39.48 239.68 35.49 237.30 C 34.74 238.46 34.00 239.63 33.27 240.81 M 81.14 243.00 C 81.60 244.32 82.08 245.65 82.56 246.98 C 87.29 245.41 91.92 243.43 95.98 240.51 C 95.18 239.38 94.36 238.26 93.54 237.15 C 89.67 239.63 85.49 241.54 81.14 243.00 M 57.18 248.73 C 62.13 249.57 67.19 249.45 72.14 248.72 C 71.94 247.37 71.72 246.02 71.48 244.68 C 66.92 245.22 62.35 245.05 57.79 244.80 C 57.45 246.08 57.33 247.41 57.18 248.73 Z" />
<path fill="#ffffff" opacity="1.00" d=" M 157.13 161.05 C 171.54 161.07 185.96 161.05 200.37 161.06 C 200.38 175.27 200.38 189.48 200.38 203.69 C 196.37 203.69 192.37 203.69 188.37 203.69 C 188.37 192.56 188.37 181.44 188.37 170.31 C 182.08 170.31 175.79 170.31 169.50 170.32 C 169.50 181.44 169.50 192.56 169.50 203.69 C 165.44 203.69 161.37 203.69 157.31 203.69 C 157.29 189.48 157.22 175.26 157.13 161.05 Z" />
<path fill="#ffffff" opacity="1.00" d=" M 224.57 161.78 C 233.19 159.67 243.00 162.37 248.85 169.18 C 253.62 174.47 255.30 182.35 252.91 189.09 C 250.20 197.14 242.41 202.86 234.09 203.91 C 225.32 205.23 215.79 201.59 210.72 194.18 C 206.78 188.64 205.94 181.06 208.65 174.81 C 211.42 168.21 217.66 163.40 224.57 161.78 M 227.12 170.18 C 220.96 171.97 217.14 178.89 218.45 185.10 C 219.43 191.29 225.52 196.37 231.87 195.50 C 239.15 194.78 244.22 186.89 242.56 179.92 C 241.41 173.07 233.89 167.91 227.12 170.18 Z" />
<path fill="#ffffff" opacity="1.00" d=" M 266.53 170.36 C 268.45 164.87 274.04 160.65 279.96 161.04 C 287.45 161.07 294.94 161.06 302.44 161.06 C 302.44 175.43 302.44 189.81 302.44 204.19 C 286.52 204.19 270.60 204.19 254.69 204.19 C 254.68 201.17 254.69 198.14 254.68 195.12 C 256.86 195.12 259.05 195.12 261.23 195.12 C 262.53 186.79 263.70 178.35 266.53 170.36 M 272.62 195.12 C 279.22 195.12 285.83 195.12 292.43 195.12 C 292.43 186.64 292.44 178.17 292.43 169.69 C 288.10 169.69 283.77 169.68 279.44 169.70 C 273.98 177.02 274.57 186.60 272.62 195.12 Z" />
<path fill="#ffffff" opacity="1.00" d=" M 311.44 204.19 C 311.43 189.71 311.43 175.23 311.44 160.75 C 315.25 160.75 319.06 160.75 322.88 160.75 C 322.88 166.12 322.88 171.50 322.88 176.88 C 325.81 176.87 328.76 176.87 331.70 176.87 C 335.56 171.50 339.43 166.13 343.29 160.75 C 347.06 160.75 350.84 160.75 354.62 160.75 C 350.33 167.97 346.02 175.17 341.73 182.39 C 346.94 189.65 352.14 196.91 357.31 204.18 C 353.09 204.19 348.87 204.19 344.65 204.19 C 340.29 198.09 335.94 191.99 331.59 185.88 C 328.64 185.88 325.69 185.88 322.75 185.88 C 322.75 191.98 322.75 198.08 322.75 204.19 C 318.98 204.19 315.21 204.19 311.44 204.19 Z" />
<path fill="#ffffff" opacity="1.00" d=" M 375.51 161.61 C 382.51 160.17 390.15 161.74 395.81 166.16 C 401.23 170.26 404.60 177.07 404.09 183.91 C 403.69 191.47 398.62 198.29 391.89 201.55 C 381.35 206.99 366.86 203.74 360.43 193.53 C 356.70 187.84 356.18 180.23 359.13 174.09 C 362.15 167.59 368.55 163.00 375.51 161.61 M 376.33 170.51 C 370.05 172.92 366.80 180.65 369.06 186.91 C 370.91 192.99 377.86 197.12 384.04 195.07 C 391.07 193.10 394.85 184.52 392.12 177.86 C 390.00 171.66 382.49 167.85 376.33 170.51 Z" />
<path fill="#ffffff" opacity="1.00" d=" M 409.31 161.06 C 420.24 161.12 431.17 160.93 442.09 161.14 C 450.47 162.97 453.87 174.99 447.60 180.80 C 455.61 187.11 452.15 200.66 443.14 204.09 C 431.87 204.33 420.58 204.12 409.31 204.19 C 409.31 189.81 409.31 175.44 409.31 161.06 M 420.76 170.18 C 420.75 172.45 420.75 174.72 420.75 177.00 C 426.55 176.93 432.37 177.14 438.17 176.91 C 440.58 175.21 439.99 171.78 438.46 169.68 C 432.55 169.81 426.65 170.01 420.76 170.18 M 420.76 185.36 C 420.75 188.53 420.75 191.70 420.75 194.87 C 426.84 194.86 432.93 194.91 439.01 194.84 C 441.59 191.92 441.50 187.65 439.01 184.70 C 432.92 184.80 426.84 185.15 420.76 185.36 Z" />
<path fill="#ffffff" opacity="1.00" d=" M 463.42 170.13 C 465.09 165.16 469.56 160.89 475.01 160.82 C 483.34 160.63 491.67 160.81 500.00 160.75 L 500.00 204.19 C 496.43 204.19 492.87 204.19 489.31 204.19 C 489.31 200.33 489.31 196.48 489.31 192.63 C 482.71 192.63 476.10 192.63 469.50 192.63 C 468.31 196.48 467.12 200.33 465.93 204.19 C 462.12 204.19 458.30 204.19 454.49 204.19 C 457.09 192.75 459.45 181.19 463.42 170.13 M 477.26 170.11 C 473.31 173.32 472.62 178.77 472.65 183.54 C 478.01 183.58 483.38 183.55 488.75 183.56 C 488.75 178.94 488.74 174.31 488.75 169.69 C 484.94 169.95 480.95 169.12 477.26 170.11 Z" />
<path fill="#ffffff" opacity="1.00" d=" M 157.48 227.26 C 161.74 227.27 166.00 227.27 170.26 227.26 C 170.27 227.81 170.27 228.91 170.28 229.46 C 168.67 229.46 167.07 229.47 165.47 229.48 C 165.46 233.65 165.47 237.83 165.47 242.00 C 164.67 242.00 163.06 242.00 162.26 242.00 C 162.27 237.82 162.27 233.64 162.26 229.46 C 160.68 229.46 159.10 229.47 157.52 229.49 C 157.51 228.93 157.49 227.81 157.48 227.26 Z" />
<path fill="#ffffff" opacity="1.00" d=" M 177.16 227.15 C 181.65 225.64 186.56 229.25 186.29 234.00 C 186.87 238.18 183.66 242.77 179.15 242.30 C 171.15 242.60 169.75 229.05 177.16 227.15 M 177.21 230.03 C 174.27 232.56 174.84 240.09 179.76 239.75 C 183.39 239.32 183.36 234.73 182.76 232.02 C 182.21 229.63 179.14 228.61 177.21 230.03 Z" />
<path fill="#ffffff" opacity="1.00" d=" M 190.36 227.00 C 191.65 227.15 192.93 227.39 193.45 228.76 C 196.06 225.93 201.28 226.38 202.82 230.12 C 203.94 233.66 204.11 238.36 201.21 241.12 C 198.75 243.13 195.35 242.34 193.17 240.35 C 193.29 243.04 193.27 245.74 193.28 248.44 C 192.52 248.46 191.01 248.51 190.26 248.53 C 190.33 241.35 190.16 234.17 190.36 227.00 M 194.49 230.37 C 192.23 233.15 192.83 240.83 197.87 239.62 C 200.82 238.57 200.41 234.61 200.12 232.12 C 199.83 229.54 196.15 228.44 194.49 230.37 Z" />
<path fill="#ffffff" opacity="1.00" d=" M 223.13 227.16 C 227.61 225.63 232.54 229.22 232.29 233.96 C 232.88 238.18 229.63 242.81 225.08 242.30 C 217.14 242.52 215.78 229.08 223.13 227.16 M 223.19 230.04 C 220.28 232.60 220.86 240.13 225.79 239.74 C 229.40 239.29 229.35 234.72 228.76 232.02 C 228.21 229.62 225.11 228.60 223.19 230.04 Z" />
<path fill="#ffffff" opacity="1.00" d=" M 236.27 227.27 C 239.87 227.51 243.69 226.66 247.16 227.82 C 250.11 229.17 249.29 233.33 246.43 234.25 C 249.35 234.78 250.56 238.29 248.49 240.47 C 244.96 243.00 240.30 241.69 236.26 241.99 C 236.27 237.09 236.27 232.18 236.27 227.27 M 239.28 229.41 C 239.27 230.62 239.26 231.82 239.26 233.03 C 241.52 232.62 245.70 234.24 246.10 230.91 C 244.53 228.71 241.56 229.68 239.28 229.41 M 239.26 235.43 C 239.27 236.88 239.27 238.34 239.29 239.80 C 241.56 239.43 246.01 240.72 246.29 237.38 C 245.65 234.27 241.51 235.86 239.26 235.43 Z" />
<path fill="#ffffff" opacity="1.00" d=" M 252.64 227.95 C 256.00 227.04 261.12 225.62 263.23 229.39 C 264.24 233.62 263.57 238.04 263.67 242.35 C 262.33 242.06 261.13 241.52 260.51 240.23 C 258.98 241.57 257.08 242.77 254.95 242.23 C 250.95 242.20 249.82 235.96 253.11 234.14 C 255.44 232.77 258.31 233.15 260.89 232.75 C 260.67 232.03 260.22 230.61 259.99 229.89 C 258.00 228.58 255.70 229.75 253.65 230.24 C 253.39 229.66 252.89 228.52 252.64 227.95 M 254.71 239.23 C 257.77 241.18 261.20 238.38 260.76 235.01 C 258.03 234.60 253.04 235.31 254.71 239.23 Z" />
<path fill="#ffffff" opacity="1.00" d=" M 267.12 229.95 C 269.86 225.75 275.34 227.68 279.50 227.25 C 279.43 232.17 279.48 237.09 279.47 242.01 C 278.66 242.00 277.06 241.99 276.26 241.98 C 276.26 240.07 276.26 238.16 276.27 236.26 C 275.51 236.26 273.99 236.28 273.22 236.29 C 272.09 238.18 270.95 240.08 269.80 241.97 C 268.90 241.98 267.10 242.00 266.20 242.01 C 267.50 240.10 268.78 238.17 270.09 236.27 C 267.90 234.83 266.88 232.55 267.12 229.95 M 270.14 230.26 C 270.47 231.30 270.06 232.91 271.22 233.52 C 272.83 234.10 274.58 233.95 276.27 234.12 C 276.26 232.53 276.26 230.95 276.25 229.37 C 274.18 229.41 272.09 229.49 270.14 230.26 Z" />
<path fill="#ffffff" opacity="1.00" d=" M 291.60 229.57 C 293.83 226.24 298.28 226.77 301.67 227.53 C 301.45 228.17 301.00 229.45 300.78 230.09 C 298.77 229.76 296.23 228.66 294.69 230.64 C 292.91 233.08 293.08 236.86 295.08 239.15 C 297.15 240.15 299.39 239.25 301.51 238.98 C 301.48 240.70 300.88 242.18 298.92 242.17 C 296.23 242.65 293.03 242.04 291.54 239.53 C 289.82 236.54 289.97 232.57 291.60 229.57 Z" />
<path fill="#ffffff" opacity="1.00" d=" M 307.53 227.49 C 310.02 226.49 313.23 226.74 315.25 228.65 C 316.93 230.43 316.74 233.02 317.16 235.26 C 313.68 235.27 310.21 235.25 306.74 235.29 C 307.43 236.74 307.68 238.83 309.41 239.46 C 311.76 240.28 314.23 239.28 316.55 238.85 C 316.44 240.48 315.90 242.02 313.98 242.00 C 310.58 242.89 306.20 242.02 304.61 238.55 C 303.10 234.84 303.61 229.50 307.53 227.49 M 306.74 232.81 C 309.22 233.04 311.72 233.04 314.21 232.83 C 313.47 231.45 313.01 229.30 311.04 229.28 C 308.67 228.77 307.64 231.12 306.74 232.81 Z" />
<path fill="#ffffff" opacity="1.00" d=" M 318.47 227.26 C 322.63 227.33 326.80 227.14 330.95 227.34 C 331.12 227.85 331.46 228.87 331.63 229.38 C 329.90 229.44 328.19 229.47 326.47 229.50 C 326.46 233.66 326.47 237.83 326.47 242.00 C 325.67 242.00 324.06 242.00 323.26 242.00 C 323.27 237.82 323.27 233.64 323.26 229.46 C 321.68 229.46 320.10 229.47 318.53 229.49 C 318.51 228.93 318.49 227.82 318.47 227.26 Z" />
<path fill="#ffffff" opacity="1.00" d=" M 334.27 227.27 C 335.27 227.26 336.27 227.26 337.28 227.27 C 337.27 229.15 337.26 231.04 337.24 232.93 C 339.89 233.09 342.75 232.75 345.24 233.87 C 348.28 235.35 347.71 240.42 344.58 241.45 C 341.24 242.44 337.69 241.86 334.26 241.99 C 334.27 237.08 334.26 232.18 334.27 227.27 M 337.27 235.42 C 337.27 236.88 337.27 238.34 337.30 239.80 C 339.39 239.42 343.18 240.59 343.96 237.99 C 344.47 234.30 339.50 235.78 337.27 235.42 Z" />
<path fill="#ffffff" opacity="1.00" d=" M 206.73 227.27 C 209.91 227.27 213.09 227.27 216.27 227.27 L 216.27 229.47 C 214.09 229.46 211.91 229.46 209.74 229.47 C 209.73 233.64 209.73 237.82 209.74 242.00 C 208.99 242.00 207.48 242.00 206.73 242.00 C 206.73 237.09 206.73 232.18 206.73 227.27 Z" />
</g>
</svg>