<svg width="29px" height="38px" viewBox="0 0 114 150" version="1.1" xmlns="http://www.w3.org/2000/svg">
<g id="#333333ff">
<path fill="#333333" opacity="1.00" d=" M 1.83 0.00 L 112.37 0.00 C 112.06 1.39 112.60 1.95 114.00 1.68 L 114.00 10.38 C 110.77 12.61 106.67 11.74 103.00 11.89 C 72.33 11.85 41.67 11.85 11.01 11.89 C 7.33 11.77 3.27 12.56 0.00 10.42 L 0.00 1.66 C 1.25 1.93 1.86 1.37 1.83 0.00 Z" />
<path fill="#333333" opacity="1.00" d=" M 0.00 33.14 C 1.45 32.10 3.15 31.48 4.95 31.59 C 37.31 31.60 69.67 31.62 102.03 31.58 C 106.03 31.71 110.31 30.92 114.00 32.87 L 114.00 41.85 C 111.15 44.10 107.37 43.30 104.02 43.43 C 73.35 43.36 42.67 43.40 11.99 43.42 C 7.99 43.30 3.71 44.07 0.00 42.14 L 0.00 33.14 Z" />
<path fill="#333333" opacity="1.00" d=" M 59.27 64.96 C 59.86 62.98 62.29 63.26 63.90 63.12 C 78.62 63.11 93.34 63.17 108.06 63.10 C 110.15 63.00 112.23 63.46 114.00 64.60 L 114.00 73.33 C 112.88 73.33 112.14 73.87 111.77 74.95 C 94.77 75.07 77.78 74.97 60.78 75.00 C 60.31 74.51 59.38 73.52 58.91 73.03 C 58.94 70.34 58.76 67.62 59.27 64.96 Z" />
</g>
<g id="#ffffffff">
<path fill="#ffffff" opacity="1.00" d=" M 0.00 76.71 C 1.08 75.70 2.31 74.76 3.89 75.01 C 22.85 74.97 41.82 75.01 60.78 75.00 C 77.78 74.97 94.77 75.07 111.77 74.95 C 112.38 75.69 113.12 76.27 114.00 76.69 L 114.00 85.10 C 112.03 87.55 108.76 86.77 106.03 86.89 C 72.00 86.83 37.97 86.90 3.94 86.85 C 2.40 87.04 1.16 86.12 0.00 85.26 L 0.00 76.71 Z" />
<path fill="#ffffff" opacity="1.00" d=" M 0.00 108.48 C 1.06 107.30 2.34 106.29 4.04 106.60 C 39.38 106.60 74.72 106.59 110.06 106.61 C 111.72 106.30 112.94 107.34 114.00 108.46 L 114.00 116.53 C 112.94 117.68 111.68 118.71 109.99 118.40 C 74.64 118.40 39.29 118.40 3.94 118.40 C 2.26 118.71 1.04 117.65 0.00 116.49 L 0.00 108.48 Z" />
<path fill="#ffffff" opacity="1.00" d=" M 59.04 140.87 C 58.99 138.79 61.23 137.95 62.98 138.15 C 78.68 138.13 94.38 138.11 110.09 138.15 C 111.62 137.96 112.85 138.90 114.00 139.76 L 114.00 148.39 C 112.67 148.11 112.10 148.64 112.27 150.00 L 60.68 150.00 C 58.06 147.71 59.00 143.93 59.04 140.87 Z" />
</g>
</svg>