<svg width="29px" height="19px" viewBox="0 0 100 66" version="1.1" xmlns="http://www.w3.org/2000/svg">
<g id="#353535ff">
<path fill="#353535" opacity="1.00" d=" M 3.75 0.00 L 96.17 0.00 C 97.66 1.02 98.95 2.31 100.00 3.78 L 100.00 6.46 C 98.96 8.81 96.85 10.66 94.13 10.36 C 65.05 10.46 35.97 10.36 6.89 10.41 C 3.99 10.77 1.35 9.35 0.00 6.78 L 0.00 3.88 C 0.99 2.36 2.28 1.06 3.75 0.00 Z" />
<path fill="#353535" opacity="1.00" d=" M 0.00 31.65 C 1.09 29.35 3.20 27.56 5.88 27.84 C 32.24 27.73 58.60 27.85 84.96 27.79 C 88.63 27.83 92.32 27.54 95.97 28.04 C 97.88 28.23 98.90 30.04 100.00 31.37 L 100.00 34.34 C 99.04 35.85 97.97 37.78 95.98 37.96 C 92.33 38.46 88.63 38.17 84.96 38.21 C 58.60 38.15 32.23 38.27 5.87 38.16 C 3.28 38.43 1.29 36.70 0.00 34.65 L 0.00 31.65 Z" />
<path fill="#353535" opacity="1.00" d=" M 52.31 58.39 C 53.63 55.41 57.29 55.59 60.02 55.56 C 71.38 55.68 82.74 55.50 94.10 55.63 C 96.73 55.35 98.74 57.12 100.00 59.23 L 100.00 62.12 C 99.01 63.64 97.72 64.95 96.25 66.00 L 55.63 66.00 C 52.72 64.80 50.58 61.40 52.31 58.39 Z" />
</g>
</svg>
