<svg width="12px" height="30px" viewBox="0 0 46 116" version="1.1" xmlns="http://www.w3.org/2000/svg">
<g id="#333333fe">
<path fill="#333333" opacity="1.00" d=" M 22.43 1.59 C 27.36 0.34 32.69 0.55 37.66 1.53 C 42.76 2.72 45.58 8.05 45.29 13.01 C 45.02 18.98 44.37 25.59 40.36 30.33 C 36.86 34.17 31.31 33.15 26.70 33.72 C 24.20 35.21 23.79 38.48 23.11 41.06 C 21.41 50.92 21.54 61.04 22.42 70.98 C 23.08 74.64 23.18 79.14 26.25 81.70 C 30.91 82.36 36.58 81.07 40.11 85.02 C 44.01 89.68 44.62 96.14 44.83 101.99 C 45.07 106.83 42.58 112.17 37.66 113.64 C 32.85 114.97 27.68 114.89 22.77 114.20 C 16.68 112.12 13.12 106.13 10.27 100.73 C 2.96 85.31 1.26 67.82 2.10 50.95 C 2.89 38.30 5.29 25.49 11.09 14.11 C 13.78 9.16 17.11 3.99 22.43 1.59 M 24.23 4.28 C 20.74 5.42 18.36 8.50 16.33 11.38 C 11.26 19.07 8.55 28.06 6.89 37.05 C 3.73 55.22 4.28 74.31 10.02 91.92 C 12.58 98.93 15.78 106.55 22.34 110.68 C 26.66 112.15 31.50 111.56 35.94 110.89 C 40.02 110.16 41.92 105.79 41.70 102.01 C 41.56 97.15 41.15 91.86 38.29 87.75 C 35.10 83.77 29.49 85.73 25.18 84.68 C 22.64 83.57 21.48 80.78 20.67 78.31 C 18.87 72.04 18.81 65.43 18.70 58.96 C 18.75 52.34 18.88 45.64 20.33 39.15 C 21.12 36.10 22.15 32.62 25.07 30.95 C 29.26 29.51 34.62 31.60 38.11 28.13 C 41.24 24.54 41.61 19.48 42.10 14.95 C 42.53 11.09 41.61 6.01 37.34 4.72 C 33.10 3.57 28.55 3.73 24.23 4.28 Z" />
</g>
</svg>
