<svg width="173px" height="38px" viewBox="0 0 346 76" version="1.1" xmlns="http://www.w3.org/2000/svg">
<g id="#00c1eeff">
<path fill="#00c1ee" opacity="1.00" d=" M 298.93 23.04 C 300.66 18.93 307.19 19.04 308.82 23.16 C 309.71 26.19 309.17 29.42 309.29 32.54 C 312.45 32.67 315.75 32.08 318.81 33.05 C 322.63 34.57 323.07 40.43 319.51 42.48 C 316.39 44.11 312.67 43.17 309.29 43.39 C 309.05 46.73 310.01 50.41 308.41 53.50 C 306.22 57.22 299.94 56.48 298.71 52.33 C 298.10 49.40 298.51 46.37 298.42 43.40 C 295.10 43.20 291.51 44.03 288.40 42.60 C 284.58 40.61 285.08 34.35 289.14 32.95 C 292.16 32.18 295.33 32.63 298.42 32.54 C 298.60 29.39 297.89 26.07 298.93 23.04 Z" />
<path fill="#00c1ee" opacity="1.00" d=" M 24.39 33.46 C 26.03 32.31 28.13 32.60 30.01 32.51 C 37.68 32.61 45.35 32.42 53.01 32.60 C 56.57 32.55 59.26 36.65 57.83 39.91 C 56.99 42.30 54.39 43.56 51.96 43.39 C 43.63 43.36 35.29 43.52 26.97 43.31 C 21.98 43.30 20.10 35.91 24.39 33.46 Z" />
</g>
</svg>