<svg width="40px" height="80px" viewBox="0 0 160 320" version="1.1" xmlns="http://www.w3.org/2000/svg">
<g id="#a0a09feb">
<path fill="#a0a09f" opacity="0.92" d=" M 71.37 2.44 C 89.85 0.34 109.03 5.15 124.30 15.78 C 139.75 26.34 151.12 42.72 155.63 60.89 C 158.65 72.71 158.83 85.23 156.10 97.13 C 151.93 116.08 140.31 133.29 124.28 144.22 C 108.09 155.47 87.50 160.22 68.02 157.09 C 55.77 155.19 43.99 150.34 33.99 142.99 C 18.00 131.44 6.76 113.53 3.28 94.10 C -0.37 74.91 3.70 54.42 14.25 37.99 C 26.64 18.33 48.26 4.90 71.37 2.44 M 74.12 4.17 C 47.96 5.89 23.51 22.44 11.97 45.95 C 2.95 63.72 1.46 85.07 7.78 103.96 C 12.70 118.71 22.19 131.94 34.75 141.14 C 50.10 152.59 69.92 157.92 88.93 155.53 C 102.23 154.04 115.06 148.83 125.74 140.77 C 140.70 129.63 151.22 112.72 154.71 94.40 C 160.47 66.26 148.43 35.54 125.13 18.77 C 110.62 7.99 92.14 2.64 74.12 4.17 Z" />
<path fill="#a0a09f" opacity="0.92" d=" M 71.29 162.45 C 89.81 160.32 109.05 165.15 124.35 175.82 C 149.54 192.78 162.83 225.38 156.53 255.12 C 152.82 274.34 141.50 291.97 125.56 303.32 C 115.16 310.86 102.85 315.68 90.12 317.36 C 71.19 319.93 51.39 315.11 35.71 304.22 C 19.49 293.15 7.79 275.66 3.74 256.44 C 0.11 239.98 2.12 222.36 9.26 207.11 C 20.31 182.76 44.70 165.23 71.29 162.45 M 75.15 164.08 C 49.12 165.48 24.56 181.48 12.65 204.64 C 4.36 220.25 1.87 238.79 5.62 256.05 C 9.41 273.72 19.73 289.93 34.22 300.74 C 44.92 308.82 57.79 314.06 71.12 315.53 C 90.33 317.94 110.35 312.46 125.75 300.76 C 140.25 289.95 150.58 273.74 154.37 256.07 C 160.83 227.76 149.15 196.44 125.77 179.25 C 111.44 168.35 93.11 162.83 75.15 164.08 Z" />
</g>
<g id="#ffffffff">
<path fill="#ffffff" opacity="1.00" d=" M 74.12 4.17 C 92.14 2.64 110.62 7.99 125.13 18.77 C 148.43 35.54 160.47 66.26 154.71 94.40 C 151.22 112.72 140.70 129.63 125.74 140.77 C 115.06 148.83 102.23 154.04 88.93 155.53 C 69.92 157.92 50.10 152.59 34.75 141.14 C 22.19 131.94 12.70 118.71 7.78 103.96 C 1.46 85.07 2.95 63.72 11.97 45.95 C 23.51 22.44 47.96 5.89 74.12 4.17 Z" />
<path fill="#ffffff" opacity="1.00" d=" M 75.15 164.08 C 93.11 162.83 111.44 168.35 125.77 179.25 C 149.15 196.44 160.83 227.76 154.37 256.07 C 150.58 273.74 140.25 289.95 125.75 300.76 C 110.35 312.46 90.33 317.94 71.12 315.53 C 57.79 314.06 44.92 308.82 34.22 300.74 C 19.73 289.93 9.41 273.72 5.62 256.05 C 1.87 238.79 4.36 220.25 12.65 204.64 C 24.56 181.48 49.12 165.48 75.15 164.08 M 76.42 206.52 C 63.05 207.83 51.09 217.88 47.58 230.86 C 43.81 243.49 48.43 258.03 58.76 266.20 C 68.75 274.54 83.71 276.13 95.25 270.17 C 109.07 263.56 116.86 246.79 112.88 231.98 C 109.27 215.95 92.69 204.44 76.42 206.52 Z" />
</g>
<g id="#00c1eeff">
<path fill="#00c1ee" opacity="1.00" d=" M 76.42 206.52 C 92.69 204.44 109.27 215.95 112.88 231.98 C 116.86 246.79 109.07 263.56 95.25 270.17 C 83.71 276.13 68.75 274.54 58.76 266.20 C 48.43 258.03 43.81 243.49 47.58 230.86 C 51.09 217.88 63.05 207.83 76.42 206.52 Z" />
</g>
</svg>