<svg width="36px" height="42px" viewBox="0 0 200 222" version="1.1" xmlns="http://www.w3.org/2000/svg">
<g id="#ffffffff">
<path fill="#ffffff" opacity="1.00" d=" M 99.32 0.00 L 100.60 0.00 C 125.67 0.05 150.47 10.20 168.42 27.67 C 188.18 46.39 199.68 73.27 200.00 100.45 L 200.00 103.61 C 199.73 129.40 189.45 154.95 171.50 173.51 C 168.71 176.79 164.27 178.64 159.98 177.78 C 153.60 176.85 148.99 170.22 149.92 163.92 C 150.20 160.57 152.24 157.79 154.51 155.47 C 165.45 143.93 172.60 128.90 174.75 113.15 C 177.04 96.94 174.18 80.02 166.48 65.56 C 158.51 50.44 145.37 38.05 129.68 31.21 C 114.82 24.66 97.78 23.25 82.04 27.22 C 65.64 31.26 50.84 41.17 40.60 54.57 C 29.97 68.27 24.26 85.63 24.49 102.95 C 24.58 122.53 32.39 141.95 46.00 156.03 C 50.25 159.90 51.48 166.57 48.61 171.61 C 45.29 178.29 35.43 180.14 30.00 174.97 C 11.47 156.77 0.79 131.18 0.00 105.29 L 0.00 98.95 C 0.78 71.55 12.83 44.62 33.18 26.17 C 50.96 9.62 75.02 0.08 99.32 0.00 M 87.47 9.73 C 64.44 12.81 43.05 25.46 28.78 43.72 C 14.28 61.95 7.15 85.74 8.92 108.94 C 10.36 130.94 19.88 152.32 35.39 168.01 C 37.26 170.28 41.23 168.85 41.50 166.00 C 41.86 163.92 40.06 162.54 38.86 161.16 C 21.18 142.47 13.01 115.55 16.64 90.14 C 19.72 66.94 32.70 45.24 51.80 31.69 C 66.29 21.25 84.22 15.68 102.08 16.20 C 118.08 16.54 133.90 21.76 147.04 30.87 C 163.60 42.24 175.84 59.66 181.08 79.03 C 186.85 100.03 184.51 123.20 174.36 142.49 C 170.44 150.18 165.11 157.04 159.24 163.32 C 156.53 166.28 161.08 171.07 164.13 168.43 C 188.22 144.87 197.15 107.73 187.59 75.56 C 180.63 51.17 163.23 29.95 140.57 18.52 C 124.33 10.22 105.51 7.19 87.47 9.73 Z" />
<path fill="#ffffff" opacity="1.00" d=" M 91.58 30.81 C 106.54 28.93 122.08 32.15 135.04 39.86 C 149.86 48.54 161.26 62.79 166.63 79.09 C 175.36 104.70 168.45 135.09 148.75 153.81 C 144.29 157.70 136.94 157.40 132.76 153.23 C 127.78 148.70 127.57 140.13 132.34 135.38 C 138.58 128.96 143.05 120.83 144.84 112.04 C 147.59 99.27 144.82 85.41 137.21 74.77 C 129.28 63.39 115.95 55.82 102.04 55.35 C 90.11 54.67 78.09 59.23 69.34 67.30 C 61.02 74.92 55.62 85.62 54.42 96.84 C 52.89 110.08 57.18 123.93 66.22 133.78 C 68.43 136.04 70.52 138.68 70.95 141.92 C 72.02 147.50 68.80 153.56 63.50 155.67 C 59.01 157.52 53.48 156.39 50.16 152.81 C 38.93 141.36 31.73 126.05 30.09 110.09 C 28.25 93.52 32.25 76.35 41.41 62.41 C 52.47 45.25 71.24 33.17 91.58 30.81 M 91.53 39.72 C 68.90 42.71 49.11 59.56 41.85 81.10 C 33.85 103.57 39.65 130.52 56.95 147.10 C 59.14 148.84 62.68 146.82 62.49 144.07 C 62.56 142.29 61.00 141.17 60.00 139.93 C 49.89 129.01 44.68 113.86 45.56 99.03 C 46.27 84.53 52.89 70.42 63.64 60.65 C 73.45 51.61 86.68 46.36 100.04 46.43 C 113.85 46.37 127.51 52.01 137.39 61.63 C 147.78 71.56 154.03 85.65 154.49 100.02 C 155.09 114.56 149.85 129.32 139.93 140.01 C 138.95 141.21 137.44 142.31 137.52 144.03 C 137.29 146.81 140.89 148.88 143.09 147.08 C 158.11 132.59 164.58 110.21 160.50 89.83 C 157.30 73.01 146.94 57.69 132.44 48.57 C 120.43 40.88 105.65 37.69 91.53 39.72 Z" />
<path fill="#ffffff" opacity="1.00" d=" M 85.07 75.13 C 97.42 67.54 114.81 71.00 123.57 82.47 C 133.98 94.92 132.25 115.33 119.72 125.71 C 114.82 129.47 111.82 135.70 112.75 141.92 C 115.67 166.97 118.72 192.02 121.59 217.08 C 121.99 219.40 120.23 221.36 118.12 222.00 L 81.92 222.00 C 79.77 221.40 78.00 219.39 78.41 217.05 C 81.29 192.02 84.33 167.00 87.24 141.97 C 87.90 137.03 86.31 131.82 82.87 128.20 C 78.61 124.38 74.42 120.22 72.27 114.78 C 65.68 100.79 71.60 82.65 85.07 75.13 M 79.11 95.97 C 76.59 104.36 79.58 114.06 86.46 119.51 C 93.29 125.04 97.00 134.13 95.87 142.87 C 93.11 166.29 90.33 189.71 87.57 213.13 C 95.86 213.13 104.14 213.13 112.43 213.13 C 109.67 189.61 106.87 166.10 104.10 142.58 C 103.08 133.94 106.74 124.95 113.55 119.52 C 121.68 113.07 124.16 100.78 119.20 91.67 C 115.45 84.32 107.30 79.42 99.01 79.93 C 89.82 80.24 81.52 87.17 79.11 95.97 Z" />
<path fill="#ffffff" opacity="1.00" d=" M 95.22 86.09 C 97.04 85.53 98.98 85.18 100.88 85.44 C 103.97 85.97 105.40 90.09 103.43 92.48 C 101.69 94.69 98.49 94.28 96.00 94.66 C 91.54 94.32 90.91 87.23 95.22 86.09 Z" />
<path fill="#ffffff" opacity="1.00" d=" M 86.30 95.18 C 88.65 93.72 92.00 95.33 92.54 98.00 C 92.74 100.20 91.79 102.45 92.60 104.60 C 93.39 107.10 96.32 109.07 95.20 111.97 C 94.40 114.85 90.37 116.02 88.25 113.85 C 84.22 109.82 82.63 103.58 84.09 98.09 C 84.37 96.87 85.14 95.72 86.30 95.18 Z" />
</g>
</svg>