<svg width="21px" height="21px" viewBox="0 0 100 100" version="1.1" xmlns="http://www.w3.org/2000/svg">
<g id="#333333ff">
<path fill="#333333" opacity="1.00" d=" M 23.44 7.99 C 39.92 -2.66 62.63 -2.07 78.61 9.27 C 90.92 17.69 98.71 31.86 100.00 46.65 L 100.00 52.60 C 99.39 61.73 96.45 70.67 91.33 78.27 C 94.16 78.26 96.99 78.27 99.82 78.27 C 99.82 80.33 99.82 82.40 99.81 84.46 C 93.58 84.46 87.35 84.48 81.12 84.46 C 81.12 78.24 81.11 72.02 81.13 65.81 C 83.20 65.80 85.27 65.80 87.34 65.81 C 87.34 68.16 87.36 70.50 87.39 72.85 C 94.93 60.56 95.90 44.51 89.53 31.53 C 83.05 17.41 68.45 7.56 52.96 6.67 C 43.81 5.97 34.55 8.40 26.76 13.22 C 25.63 11.49 24.52 9.75 23.44 7.99 Z" />
<path fill="#333333" opacity="1.00" d=" M 0.19 15.87 C 6.42 15.87 12.64 15.86 18.87 15.88 C 18.90 22.11 18.88 28.35 18.88 34.59 C 16.81 34.60 14.73 34.60 12.66 34.59 C 12.66 32.21 12.64 29.84 12.60 27.47 C 5.12 39.72 4.13 55.66 10.39 68.63 C 16.16 81.26 28.36 90.68 42.05 93.04 C 52.72 95.09 64.05 92.87 73.25 87.11 C 74.36 88.85 75.47 90.59 76.56 92.35 C 69.64 96.80 61.60 99.24 53.43 100.00 L 45.95 100.00 C 33.32 98.68 21.06 92.97 12.67 83.32 C 5.07 74.90 0.67 63.81 0.00 52.51 L 0.00 48.41 C 0.41 39.03 3.48 29.86 8.66 22.05 C 5.84 22.08 3.01 22.06 0.19 22.06 C 0.17 20.00 0.17 17.94 0.19 15.87 Z" />
</g>
</svg>