<svg width="27px" height="25px" viewBox="0 0 200 215" version="1.1" xmlns="http://www.w3.org/2000/svg">
<g id="#333333ff">
<path fill="#333333" opacity="1.00" d=" M 45.42 13.41 C 60.89 6.61 78.72 5.41 94.96 10.06 C 111.18 14.61 125.63 24.92 135.44 38.59 C 145.52 52.50 150.61 69.92 149.62 87.07 C 148.70 102.75 143.28 118.28 133.60 130.72 C 137.15 131.08 140.88 131.91 143.45 134.59 C 160.75 151.97 177.93 169.45 195.22 186.84 C 197.22 188.81 198.89 191.21 199.41 194.03 C 201.44 202.64 190.82 210.19 183.07 206.90 C 179.41 205.57 176.97 202.38 174.27 199.75 C 157.66 183.01 141.15 166.17 124.46 149.52 C 122.20 147.30 122.48 143.89 122.19 141.00 C 104.54 156.81 78.68 162.22 55.94 156.08 C 39.60 151.80 24.96 141.65 14.93 128.09 C 6.05 116.24 1.02 101.75 0.00 87.01 L 0.00 79.19 C 0.71 69.24 3.00 59.34 7.36 50.33 C 15.10 34.00 28.83 20.59 45.42 13.41 M 69.32 26.45 C 53.98 27.86 39.46 36.03 30.23 48.35 C 20.22 61.43 16.51 78.94 19.99 95.00 C 23.06 109.94 32.51 123.44 45.53 131.39 C 57.21 138.65 71.63 141.24 85.13 138.71 C 100.37 136.00 114.21 126.50 122.35 113.36 C 130.51 100.47 132.98 84.25 129.45 69.44 C 126.21 55.59 117.51 43.09 105.58 35.31 C 94.99 28.29 81.95 25.19 69.32 26.45 Z" />
</g>
</svg>