<svg width="44px" height="88px" viewBox="0 0 200 400" version="1.1" xmlns="http://www.w3.org/2000/svg">
<g id="#333333ff">
<path fill="#333333" opacity="1.00" d=" M 54.77 45.73 C 64.69 38.14 77.81 34.87 90.13 37.09 C 105.28 39.60 118.60 50.33 124.60 64.43 C 131.31 79.79 128.75 98.61 118.51 111.82 C 120.66 112.27 122.98 112.68 124.55 114.37 C 135.08 124.87 145.52 135.47 156.02 145.99 C 158.13 147.94 159.66 150.86 158.77 153.78 C 157.06 158.74 149.90 160.87 146.16 156.82 C 135.09 145.90 124.25 134.74 113.20 123.80 C 111.52 122.46 111.62 120.18 111.40 118.26 C 100.55 127.86 84.79 131.20 70.87 127.46 C 61.71 125.14 53.41 119.75 47.32 112.55 C 39.04 102.87 35.10 89.63 36.72 77.00 C 38.22 64.72 44.89 53.17 54.77 45.73 M 75.40 48.68 C 61.35 51.33 49.91 63.65 48.22 77.83 C 46.19 91.01 52.54 105.07 63.93 112.07 C 73.26 118.05 85.53 119.07 95.71 114.71 C 103.77 111.39 110.41 104.83 113.90 96.85 C 118.29 86.96 117.74 75.02 112.42 65.58 C 105.47 52.67 89.70 45.54 75.40 48.68 Z" />
</g>
<g id="#ffffffff">
<path fill="#ffffff" opacity="1.00" d=" M 55.37 245.28 C 65.20 238.02 78.01 234.93 90.06 237.07 C 104.78 239.50 117.81 249.67 124.04 263.18 C 131.42 278.75 129.05 298.27 118.49 311.83 C 120.65 312.23 122.97 312.68 124.55 314.36 C 134.74 324.53 144.83 334.79 155.02 344.96 C 157.25 347.05 159.59 349.78 158.92 353.10 C 157.79 358.50 150.05 361.08 146.17 356.84 C 135.06 345.87 124.18 334.66 113.07 323.69 C 111.49 322.33 111.61 320.11 111.42 318.23 C 103.67 325.10 93.34 328.84 83.02 328.93 C 69.96 329.24 56.98 323.43 48.33 313.68 C 39.37 303.93 35.04 290.15 36.72 277.02 C 38.24 264.48 45.15 252.71 55.37 245.28 M 75.42 248.67 C 61.70 251.27 50.43 263.05 48.37 276.84 C 46.06 289.62 51.58 303.43 62.21 310.92 C 71.56 317.72 84.40 319.33 95.10 314.95 C 104.39 311.35 111.86 303.45 115.00 294.00 C 119.50 281.12 115.65 265.76 105.35 256.74 C 97.39 249.49 85.92 246.50 75.42 248.67 Z" />
</g>
</svg>