<svg width="11px" height="12px" viewBox="0 0 110 120" version="1.1" xmlns="http://www.w3.org/2000/svg">
<g id="#ffffffff">
<path fill="#ffffff" opacity="1.00" d=" M 6.08 0.00 L 9.77 0.00 C 11.24 0.41 12.59 1.17 13.67 2.26 C 27.56 15.51 41.43 28.79 55.33 42.02 C 69.27 28.77 83.15 15.46 97.08 2.20 C 98.16 1.09 99.55 0.39 101.04 0.00 L 104.60 0.00 C 106.95 0.61 108.94 2.24 110.00 4.42 L 110.00 11.55 L 109.99 9.98 C 109.22 11.51 107.96 12.66 106.75 13.81 C 91.38 28.46 76.06 43.15 60.67 57.78 C 57.70 60.65 52.56 60.46 49.71 57.52 C 33.83 42.35 17.90 27.22 2.07 12.00 C -1.87 8.11 0.84 0.99 6.08 0.00 Z" />
<path fill="#ffffff" opacity="1.00" d=" M 49.70 62.49 C 52.56 59.54 57.74 59.36 60.71 62.26 C 76.43 77.20 92.08 92.21 107.78 107.17 C 108.68 108.00 109.41 108.95 110.00 110.03 L 110.00 115.50 C 109.01 117.70 107.03 119.35 104.72 120.00 L 101.05 120.00 C 99.56 119.66 98.20 118.94 97.12 117.85 C 83.18 104.57 69.28 91.25 55.34 77.98 C 42.29 90.39 29.29 102.84 16.26 115.26 C 14.29 117.06 12.52 119.34 9.80 120.00 L 6.07 120.00 C 0.83 119.01 -1.87 111.88 2.09 107.99 C 17.90 92.77 33.83 77.66 49.70 62.49 Z" />
</g>
</svg>